<svg id="图层_1" data-name="图层 1" xmlns="http://www.w3.org/2000/svg" viewBox="0 0 24 24"><defs></defs><title>addsjy</title><path class="cls-1" d="M11.8,10.7a12.5,12.5,0,0,0,8-2.2v1.8h1.5V5.8c0-2.7-4.2-4.9-9.5-4.9S2.3,3.1,2.3,5.8V18.9c0,2.3,4.3,4.2,9.5,4.2h.1V21.5h-.1c-4.3,0-7.9-1.2-7.9-2.6V17a12.7,12.7,0,0,0,6.6,1.9h.1V17.4h-.1c-3.8-.2-6.6-1.3-6.6-2.6V12.9a12.7,12.7,0,0,0,6.6,1.9h.1V13.2h-.1c-3.8-.2-6.6-1.3-6.6-2.6V8.5C5.6,9.9,8.6,10.7,11.8,10.7Zm0-8.2c4.4,0,8,1.5,8,3.3s-3.6,3.4-8,3.4S3.9,7.7,3.9,5.8,7.4,2.5,11.8,2.5Z"/><path class="cls-1" d="M22.2,17.1H18.9V13.8a.9.9,0,0,0-.8-.8h-.2a.9.9,0,0,0-.8.8v3.3H13.8a.9.9,0,0,0-.8.8v.2a.9.9,0,0,0,.8.8h3.3v3.3a.9.9,0,0,0,.8.8h.2a.9.9,0,0,0,.8-.8V18.9h3.3a.9.9,0,0,0,.8-.8v-.2A.9.9,0,0,0,22.2,17.1Z"/></svg>