<svg id="图层_1" data-name="图层 1" xmlns="http://www.w3.org/2000/svg" viewBox="0 0 24 24"><defs><style>.cls-1{fill:#666;}</style></defs><title>baifenh</title><path class="cls-1" d="M21.1,2H2.9a.9.9,0,0,0-.9.9V21.1a.9.9,0,0,0,.9.9H21.1a.9.9,0,0,0,.9-.9V2.9A.9.9,0,0,0,21.1,2Zm-.8,18.3H3.7V3.7H20.3Z"/><path class="cls-1" d="M15.4,12.8a2.5,2.5,0,0,0-2.6,2.6A2.6,2.6,0,0,0,15.4,18,2.6,2.6,0,0,0,18,15.4,2.6,2.6,0,0,0,15.4,12.8Zm0,3.7a1.1,1.1,0,1,1,1.1-1.1A1.1,1.1,0,0,1,15.4,16.5Z"/><path class="cls-1" d="M6.8,18l.5-.2L17.8,7.3a.8.8,0,0,0-1.1-1.1L6.2,16.7h0a.8.8,0,0,0,0,1.1Z"/><path class="cls-1" d="M8.6,11.3A2.7,2.7,0,1,0,8.6,6a2.7,2.7,0,0,0,0,5.3Zm0-3.8A1.2,1.2,0,0,1,9.8,8.6,1.3,1.3,0,0,1,8.6,9.8,1.2,1.2,0,0,1,7.5,8.6,1.1,1.1,0,0,1,8.6,7.5Z"/></svg>