<svg id="图层_1" data-name="图层 1" xmlns="http://www.w3.org/2000/svg" viewBox="0 0 24 24"><title>banci</title><path class="cls-1" d="M17.42,9.75a2.48,2.48,0,0,1,2.39,2.56,2.4,2.4,0,1,1-4.78,0A2.48,2.48,0,0,1,17.42,9.75Zm4.94,9.15c-.41-.69-1.31-2.11-1.39-2.24a1.85,1.85,0,0,0-.95-1h0l-.22-.07h0l-.45-.12v0l-.24,0-.19,0h0a7.38,7.38,0,0,0-1.48-.17,6.2,6.2,0,0,0-2.81.54s-.18,0-.53.56c-.53.87-1.35,2.14-1.6,2.56a1.5,1.5,0,0,0-.32,1.42,6.2,6.2,0,0,0,.67,1.1h9.07s.13,0,.76-1.13C22.9,19.67,22.65,19.42,22.36,18.9ZM11.62,20.07a.67.67,0,0,1-.66.7H3.1a1.85,1.85,0,0,1-1.86-1.85V4.45A1.86,1.86,0,0,1,3.1,2.59H20.88a1.86,1.86,0,0,1,1.86,1.86V16.06a.69.69,0,1,1-1.37,0V7.59H2.61V18.92h0a.48.48,0,0,0,.49.48H11A.68.68,0,0,1,11.62,20.07Zm-9-13.72H21.37V4.45A.49.49,0,0,0,20.88,4H16.45v.91a.64.64,0,0,1-.18.43.59.59,0,0,1-.42.17.6.6,0,0,1-.6-.6V4H8.8v.91a.6.6,0,0,1-.6.6.59.59,0,0,1-.6-.59V4H3.1a.49.49,0,0,0-.49.49ZM7,11.4v3.15l.57-.9V10.71ZM8.92,9.51h0a.34.34,0,0,0-.68,0h0v5.83l-.51,1-.19.45,1.38-1.06ZM4.37,15.79v0h0a.46.46,0,0,0-.43.44.45.45,0,0,0,.43.47l.12,0H6.2v0a.44.44,0,0,0,0-.87H5.73V13.38h.32a.46.46,0,0,0,0-.91H5.73V10.64h.41a.45.45,0,0,0,0-.9H4.44a.45.45,0,0,0,0,.9h.39v1.84H4.49v0a.45.45,0,0,0,0,.9l.12,0h.22v2.41Zm7.71.46a.45.45,0,0,0-.46-.44v0h-.45V13.38h.34a.45.45,0,0,0,.45-.45.46.46,0,0,0-.44-.47l-.08,0h-.27V10.64h.27l.08,0a.45.45,0,0,0,.47-.43v0a.45.45,0,0,0-.43-.42v0H9.86v0a.45.45,0,0,0-.42.43.43.43,0,0,0,.43.46.25.25,0,0,0,.12,0h.27v1.84H9.93a.45.45,0,0,0,0,.9h.33v2.41H9.79A.47.47,0,0,0,9.4,16a.6.6,0,0,0-.06.23.46.46,0,0,0,.46.45h1.73l.08,0a.46.46,0,0,0,.47-.44Z"/></svg>