<svg id="图层_1" data-name="图层 1" xmlns="http://www.w3.org/2000/svg" viewBox="0 0 24 24"><defs><style>.cls-1{fill:#c90;}.cls-2{fill:#666;}</style></defs><title>biaoggl</title><path class="cls-1" d="M20.9,18v-.8a.6.6,0,0,0-.6-.6.6.6,0,0,0-.5.6V18H15.4V13.7h4.4v.8a.5.5,0,0,0,.5.5.6.6,0,0,0,.6-.5v-.8a1.1,1.1,0,0,0-1.1-1.1H15.5a1,1,0,0,0-1.1,1.1V18a1,1,0,0,0,1.1,1.1h4.3A1.1,1.1,0,0,0,20.9,18Z"/><path class="cls-1" d="M22.5,15.3H18.1A1,1,0,0,0,17,16.4v.8a.6.6,0,0,0,.6.5.5.5,0,0,0,.5-.5v-.8h4.4v4.3H18.1v-.8a.6.6,0,0,0-.5-.6.6.6,0,0,0-.6.6v.8a1.1,1.1,0,0,0,1.1,1.1h4.4a1.1,1.1,0,0,0,1.1-1.1V16.4A1,1,0,0,0,22.5,15.3Z"/><path class="cls-2" d="M23.5,7.6V3.1a.9.9,0,0,0-.9-.9H1.3a.8.8,0,0,0-.8.9V7.6h0v5.7h0v6.9a.7.7,0,0,0,.8.8H15.1a5.1,5.1,0,0,1-.9-1.6H9.1V14.2h4a3.4,3.4,0,0,1,.8-1.7H9.1V8.4h5.3v3.5a3.7,3.7,0,0,1,1.7-1V8.4h5.7V12l1.7.8V7.6ZM7.4,19.5H2.1V14.2H7.4Zm0-7H2.1V8.4H7.4ZM21.8,6.8H2.1V3.9H21.8Z"/></svg>