<svg id="图层_1" data-name="图层 1" xmlns="http://www.w3.org/2000/svg" viewBox="0 0 24 24"><defs><style>.cls-1{fill:#666;}.cls-2{fill:#e03146;}</style></defs><title>biaoghb</title><polygon class="cls-1" points="9.9 21.1 2.4 21.1 2.4 2.9 9.9 2.9 9.9 8.4 11.5 8.4 11.5 1.4 0.8 1.4 0.8 22.6 11.5 22.6 11.5 15.6 9.9 15.6 9.9 21.1"/><polygon class="cls-1" points="12.5 1.4 12.5 8.4 14.1 8.4 14.1 2.9 21.6 2.9 21.6 21.1 14.1 21.1 14.1 15.6 12.5 15.6 12.5 22.6 23.1 22.6 23.1 1.4 12.5 1.4"/><polygon class="cls-2" points="11.6 11.4 11.5 11.3 11.5 11.2 11.4 11.2 8.5 8.5 7.4 9.5 9.2 11.2 3.4 11.2 3.4 12.8 9.2 12.8 7.4 14.5 8.5 15.5 11.4 12.8 11.5 12.8 11.5 12.7 11.6 12.6 11.5 12.6 11.5 11.4 11.6 11.4"/><polygon class="cls-2" points="12.4 12.6 12.5 12.7 12.5 12.8 12.6 12.8 15.5 15.5 16.6 14.5 14.8 12.8 20.6 12.8 20.6 11.2 14.8 11.2 16.6 9.5 15.5 8.5 12.6 11.2 12.5 11.2 12.5 11.3 12.4 11.4 12.5 11.4 12.5 12.6 12.4 12.6"/></svg>