<svg id="图层_1" data-name="图层 1" xmlns="http://www.w3.org/2000/svg" viewBox="0 0 24 24"><defs></defs><title>bumengw</title><path class="cls-1" d="M18.3,7.3a6.3,6.3,0,0,0-12.6,0,6,6,0,0,0,2.8,5.2A11,11,0,0,0,1,23H2.6A9.4,9.4,0,0,1,12,13.6,6.3,6.3,0,0,0,18.3,7.3ZM12,12a4.7,4.7,0,1,1,4.7-4.7A4.7,4.7,0,0,1,12,12Z"/><path class="cls-1" d="M20,18V14H15.9v4h1.7v.7h-3v.7h6.7v-.7h-3V18Zm-2.7-1.3V15.3h1.3v1.4Z"/><path class="cls-1" d="M13.9,22.8h2.7V20.1H13.9Zm.7-2.1h1.3v1.4H14.6Z"/><path class="cls-1" d="M19.3,20.1v2.7H22V20.1Zm2,2H20V20.7h1.3Z"/></svg>