<svg id="图层_1" data-name="图层 1" xmlns="http://www.w3.org/2000/svg" viewBox="0 0 24 24"><defs></defs><title>chaxun</title><path class="cls-1" d="M14.2,21.4H5a2,2,0,0,1-2-2.1H3V4.7A2,2,0,0,1,5,2.6H19a2,2,0,0,1,1.4.6A2,2,0,0,1,21,4.7v9.7h0a.7.7,0,0,0,.7.7.8.8,0,0,0,.8-.7V4.7h0A3.7,3.7,0,0,0,19,1H5A3.7,3.7,0,0,0,1.5,4.7h0V19.3A3.7,3.7,0,0,0,5,23h9.2a.8.8,0,0,0,0-1.6Z"/><path class="cls-1" d="M22.3,20.8l-2.9-2.7a4.1,4.1,0,0,0-1-6,4.7,4.7,0,0,0-6.3,1,4.2,4.2,0,0,0,1,6,5.1,5.1,0,0,0,5.3,0l2.8,2.7a.8.8,0,0,0,1.1,0A.7.7,0,0,0,22.3,20.8Zm-4.4-3.2a3.4,3.4,0,0,1-2.1.8h0a2.8,2.8,0,0,1-3-2.8,2.9,2.9,0,0,1,3-2.9,3,3,0,0,1,3,2.9A3.1,3.1,0,0,1,17.9,17.6Z"/><path class="cls-1" d="M18.8,5.7A.8.8,0,0,0,18,5H6A.7.7,0,0,0,6,6.4H18A.8.8,0,0,0,18.8,5.7Z"/><path class="cls-1" d="M11.3,10a.8.8,0,0,0-.8-.7H6a.7.7,0,1,0,0,1.4h4.5A.8.8,0,0,0,11.3,10Z"/><path class="cls-1" d="M9,13.6H6A.7.7,0,0,0,6,15H9a.8.8,0,0,0,.8-.7.8.8,0,0,0-.8-.7Z"/></svg>