<svg id="图层_1" data-name="图层 1" xmlns="http://www.w3.org/2000/svg" viewBox="0 0 24 24"><defs><style>.cls-1{fill:#666;}</style></defs><title>chengpzxs</title><polygon class="cls-1" points="11.8 5.3 8.7 3.7 8.7 6.9 11.8 8.4 11.8 5.3"/><polygon class="cls-1" points="15.2 3.4 12 1.8 8.8 3.4 12 5 15.2 3.4"/><polygon class="cls-1" points="12.1 8.5 15.3 6.9 15.3 3.7 12.2 5.3 12.1 8.5"/><path class="cls-1" d="M22.9,6.8,16.4,3.3V4.7l5,2.7-2.9,2L16.4,8.3V9.4l1.2.6-5.7,3.1L6.3,10l1.3-.8v-1L5.4,9.4l-2.9-2L7.6,4.6V3.3L1.1,6.8v.9L4.4,10,1.1,12.3v.9l3.6,2V18L12,22.2,19.7,18V14.9l3.2-1.8v-.8L19.6,10l3.3-2.3ZM2.5,12.5l2.8-1.9,6,3.3L8.5,15.8Zm9.1,7.8L5.9,17V15.8l2.5,1.4L11.6,15ZM18.4,17l-6,3.3V15l3.2,2.2,2.8-1.6Zm3-4.5-6,3.3-2.8-1.9,6.1-3.3Z"/></svg>