<svg id="图层_1" data-name="图层 1" xmlns="http://www.w3.org/2000/svg" viewBox="0 0 24 24"><defs></defs><title>chendishuju</title><path class="cls-1" d="M10.1,10.6A12.4,12.4,0,0,0,18,8.3v1.9h1.3V5.8c0-2.6-4.1-4.8-9.2-4.8S1,3.2,1,5.8V18.9C1,21.2,5.1,23,10.1,23V21.6c-4.3,0-7.8-1.2-7.8-2.7v-2a12.6,12.6,0,0,0,6.5,1.9V17.5c-3.7-.2-6.5-1.3-6.5-2.7V12.7a11.8,11.8,0,0,0,6.5,2V13.3c-3.7-.2-6.5-1.3-6.5-2.7V8.3C3.9,9.7,6.8,10.6,10.1,10.6Zm0-8.2c4.4,0,7.9,1.5,7.9,3.4s-3.5,3.5-7.9,3.5S2.3,7.7,2.3,5.8,5.8,2.4,10.1,2.4Z"/><path class="cls-1" d="M16.9,14.9a2.3,2.3,0,0,0-2.3,2.3,2.3,2.3,0,1,0,4.5,0A2.3,2.3,0,0,0,16.9,14.9Zm0,3.4a1.1,1.1,0,1,1,0-2.2,1.1,1.1,0,1,1,0,2.2Z"/><path class="cls-1" d="M22.9,16a.8.8,0,0,0-.8-.7h0A1.3,1.3,0,0,1,20.8,14a.9.9,0,0,1,.1-.5.9.9,0,0,0-.3-1.1l-1.5-.8h-.4a.8.8,0,0,0-.7.3,2.4,2.4,0,0,1-1.1.6,2.1,2.1,0,0,1-1-.6,1.1,1.1,0,0,0-.7-.3h-.4l-1.5.8a.9.9,0,0,0-.4,1.1.8.8,0,0,1,.2.5,1.3,1.3,0,0,1-1.3,1.3h-.2a.8.8,0,0,0-.7.7,4.9,4.9,0,0,0-.1,1.2,4.9,4.9,0,0,0,.1,1.2.8.8,0,0,0,.7.8h.1A1.2,1.2,0,0,1,13,20.4a4.3,4.3,0,0,1-.1.5,1,1,0,0,0,.3,1.2l1.5.8h.4a.9.9,0,0,0,.7-.3,1.9,1.9,0,0,1,1.1-.7,2.6,2.6,0,0,1,1.1.7.9.9,0,0,0,.6.3H19l1.5-.8a.8.8,0,0,0,.3-1.1c0-.2-.1-.3-.1-.5A1.3,1.3,0,0,1,22,19.2h.1a.7.7,0,0,0,.7-.7,5.9,5.9,0,0,0,.2-1.3C23,16.8,22.9,16.4,22.9,16Zm-1.1,2a2.5,2.5,0,0,0-2.2,2.4,2.4,2.4,0,0,0,.2.8l-1.1.6-.5-.4a2.4,2.4,0,0,0-1.4-.5,2.1,2.1,0,0,0-1.3.5l-.5.4-1-.6a2.2,2.2,0,0,0,.1-.8A2.5,2.5,0,0,0,12,18c0-.3-.1-.5-.1-.8s.1-.5.1-.8A2.5,2.5,0,0,0,14.2,14a1.5,1.5,0,0,0-.1-.7l1.1-.7.4.4a2.4,2.4,0,0,0,1.4.5,2.4,2.4,0,0,0,1.3-.5l.4-.3,1.1.6a1.5,1.5,0,0,0-.1.7,2.5,2.5,0,0,0,2.1,2.4V18Z"/></svg>