<svg xmlns="http://www.w3.org/2000/svg" viewBox="0 0 24 24"><defs></defs><title>cllxbm</title><path class="a" d="M23.2,20h0L13.5,2.4a1.8,1.8,0,0,0-1.5-1,1.9,1.9,0,0,0-1.5,1L6.6,9.5H2.2A1.7,1.7,0,0,0,.6,11.2V21a1.6,1.6,0,0,0,1.6,1.6H21.6a1.8,1.8,0,0,0,1.6-.8A1.9,1.9,0,0,0,23.2,20ZM12,21H2.2V18.6H12Zm0-4.1H2.2V15.3H12Zm0-3.2H2.2V11.2H12ZM21.6,21h-8V11.2A1.7,1.7,0,0,0,12,9.5H8.5L12,3.2h0a.1.1,0,0,1,.1.1l9.6,17.5v.2Z"/><path class="a" d="M18.2,7.2l-.4.7.6.6.6-.4.5.2.2.7h.8l.2-.7.5-.2.7.4h0l.6-.6h0L22,7.2l.3-.5H23V5.7h-.7L22,5l.5-.6h0l-.6-.6h0l-.7.4L20.7,4l-.2-.8h-.8l-.2.8-.5.2-.6-.4-.6.6.4.6a1.4,1.4,0,0,0-.2.6h-.8v.9H18A.8.8,0,0,0,18.2,7.2Zm1.9-2.1a1,1,0,0,1,1,1,.9.9,0,0,1-1,1,1,1,0,0,1-1-1A1.1,1.1,0,0,1,20.1,5.1Z"/></svg>