<svg xmlns="http://www.w3.org/2000/svg" viewBox="0 0 24 24"><defs></defs><title>csgzk</title><path class="a" d="M3.3,3.7H18v6.6h2.1V2.6A1.1,1.1,0,0,0,19,1.5H2.2a1,1,0,0,0-1,1.1V21.4h0a1,1,0,0,0,1,1.1h8.3V20.3H3.3Z"/><path class="a" d="M13.5,13l2.6-2.8a1.1,1.1,0,0,0,0-1.5L13.5,5.9,12,7.5l1.9,2L12,11.4Z"/><path class="a" d="M7.8,5.9h0L5.2,8.7a.9.9,0,0,0,0,1.5L7.8,13l1.5-1.6L7.4,9.5l1.9-2Z"/><path class="a" d="M17.2,13.9a.4.4,0,0,0-.4-.4H15.1a.5.5,0,0,0-.5.4v.6H12.7c-.2,0-.4.1-.4.3a.4.4,0,0,0,.4.4h1.9v.5a.5.5,0,0,0,.5.4h1.7a.4.4,0,0,0,.4-.4v-.5h5.3c.2,0,.3-.2.3-.4a.3.3,0,0,0-.3-.3H17.2Zm-.6,1.6H15.2V14.1h1.4Z"/><path class="a" d="M22.5,17.7H20.8v-.6a.4.4,0,0,0-.4-.4H18.6a.4.4,0,0,0-.4.4v.6H12.7c-.2,0-.4.1-.4.3s.2.3.4.3h5.5v.6a.4.4,0,0,0,.4.4h1.8a.4.4,0,0,0,.4-.4v-.6h1.7a.3.3,0,0,0,0-.6Zm-2.3,1H18.8V17.3h1.4Z"/><path class="a" d="M22.5,20.8H17.2v-.5a.5.5,0,0,0-.4-.5H15.1a.5.5,0,0,0-.5.5v.5H12.7a.4.4,0,0,0-.4.4c0,.2.2.3.4.3h1.9v.6a.5.5,0,0,0,.5.4h1.7a.4.4,0,0,0,.4-.4v-.6h5.3a.3.3,0,0,0,.3-.3C22.8,21,22.7,20.8,22.5,20.8Zm-5.9,1.1H15.2V20.4h1.4Z"/></svg>