<svg xmlns="http://www.w3.org/2000/svg" viewBox="0 0 24 24"><defs></defs><title>djsbk</title><path class="a" d="M1.4,15.8H6.5a1,1,0,0,0,.9-1V9.4a.9.9,0,0,0-.9-1H1.4a.9.9,0,0,0-.9,1v5.4A1,1,0,0,0,1.4,15.8ZM2.1,10H5.8v4.1H2.1Z"/><path class="a" d="M6.8,6.4a.8.8,0,0,0,.8-.9V3.3H19.7a.9.9,0,0,0,.8-.8.9.9,0,0,0-.8-.9H7.3A1.4,1.4,0,0,0,6,3V5.5A.8.8,0,0,0,6.8,6.4Z"/><path class="a" d="M6.2,20.7H2.4a.9.9,0,0,0-.8.9c0,.4.4.7.8.8H6.2a.9.9,0,0,0,.9-.9A.9.9,0,0,0,6.2,20.7Z"/><path class="a" d="M22.5,4.4H9.7a1.1,1.1,0,0,0-1,1.1v9.2a1.1,1.1,0,0,0,1,1.1H22.4a1.1,1.1,0,0,0,1.1-1.1V12.8a.9.9,0,0,0-.8-.8.8.8,0,0,0-.8.8v1.3H10.4v-8H21.9V9.5a.8.8,0,0,0,.8.9.9.9,0,0,0,.8-.9v-4A1,1,0,0,0,22.5,4.4Z"/><path class="a" d="M13.9,20.7H10.1a.9.9,0,0,0-.9.8.9.9,0,0,0,.9.9h3.8a1,1,0,0,0,.8-.9A.9.9,0,0,0,13.9,20.7Z"/><path class="a" d="M22.7,17.4H1.4a.8.8,0,0,0-.8.8h0a.8.8,0,0,0,.8.8H22.7a.9.9,0,0,0,.8-.8h0A.9.9,0,0,0,22.7,17.4Z"/><path class="a" d="M21.5,20.7H17.7a.8.8,0,0,0-.8.9c0,.4.4.7.8.8h3.8a.9.9,0,0,0,.8-.9A.8.8,0,0,0,21.5,20.7Z"/></svg>