<svg id="图层_1" data-name="图层 1" xmlns="http://www.w3.org/2000/svg" viewBox="0 0 24 24"><defs><style>.cls-1{fill:#666;}</style></defs><title>duowfxpz</title><path class="cls-1" d="M23,17.3a.7.7,0,0,0-.7-.7.7.7,0,0,1-.5-.4h0l-.2-.4h0a.4.4,0,0,1,.1-.5l.4-.4a.3.3,0,0,0,.1-.2v-.2l-.8-.8h-.4l-.3.4a.7.7,0,0,1-.6.1h-.4a.5.5,0,0,1-.3-.5.8.8,0,0,0-.5-.7h-.4a.8.8,0,0,0-.8.7.5.5,0,0,1-.3.5h0l-.4.2h-.6l-.3-.3h-.4l-.2.3-.6.5v.4l.4.4c.1.1.1.2.1.4h0c-.1.2-.1.3-.2.4h0c-.1.2-.2.4-.5.4a.7.7,0,0,0-.7.7v.4a.8.8,0,0,0,.7.5c.3,0,.4.2.5.4h0l.2.4h0v.3c0,.1,0,.2-.1.2l-.4.4v.4l.8.7H16l.3-.3a.5.5,0,0,1,.6-.1h0l.4.2h0a.4.4,0,0,1,.4.4.7.7,0,0,0,.7.8h.2a.8.8,0,0,0,.7-.8c0-.2.1-.4.3-.4H20a.5.5,0,0,1,.6.1l.3.3h.2c.1,0,.2,0,.2-.1l.8-.7a.3.3,0,0,1,.1-.2.3.3,0,0,0-.1-.2l-.4-.4a.7.7,0,0,1-.1-.5h.1c0-.2.1-.3.1-.4h0a.7.7,0,0,1,.5-.4.7.7,0,0,0,.7-.7h0Zm-3.6,2-.7.3h-.3a2.6,2.6,0,0,1-1.5-.7,1.8,1.8,0,0,1-.5-1.2v-.2a1.6,1.6,0,0,1,.5-1.4l.3-.3a2.1,2.1,0,0,1,1.3-.5h.2l.7.2a2.1,2.1,0,0,1,1.1,1.8A1.9,1.9,0,0,1,19.4,19.3Z"/><path class="cls-1" d="M22.4,8.4h-.6L11.2,2.6A1.7,1.7,0,0,0,9.5,1,1.7,1.7,0,0,0,8,2.7a.8.8,0,0,0,.1.4L2.4,6.2a1.1,1.1,0,0,0-.8-.3A1.6,1.6,0,0,0,0,7.5,1.6,1.6,0,0,0,1.2,9.1h0l1.5,5.7a1.4,1.4,0,0,0-.3.9A1.6,1.6,0,0,0,4,17.3h.2l5.4,4.5h.1A1.6,1.6,0,0,0,11.2,23a1.6,1.6,0,0,0,1.6-1.6c0-.2,0-.3-.1-.4l.9-1a3.4,3.4,0,0,1-.5-1.7l-1.3,1.3-.8-6a2.5,2.5,0,0,0,1-1.8l7.6-.7-.8.9,1.8.4,1-1,.8.2a1.6,1.6,0,0,0,0-3.2ZM8.9,4.5V9.3c-.3,0-.5.2-.8.3L3.5,7.5ZM4.2,14.1,2.8,9l4.5,2a1.3,1.3,0,0,0-.1.6,1.3,1.3,0,0,0,.1.6l-2.7,2Zm5.9,6.1L5.5,16.3a1.3,1.3,0,0,0,.1-.6v-.2l2.6-1.9a2.8,2.8,0,0,0,1.3.4l.7,6.1Zm1.5-10a3.9,3.9,0,0,0-1-.8V4h0l9.9,5.4Z"/></svg>