<svg id="图层_1" data-name="图层 1" xmlns="http://www.w3.org/2000/svg" viewBox="0 0 24 24"><defs><style>.cls-1,.cls-2{fill:#26a69a;}.cls-2{opacity:0.5;}.cls-3{fill:#c90;}</style></defs><title>duoxuank</title><path class="cls-1" d="M16.7,18.9H4.3a2.1,2.1,0,0,1-2.1-2.1V4.2A2.2,2.2,0,0,1,4.3,2h11a.8.8,0,0,1,.8.8.9.9,0,0,1-.8.8H4.3a.6.6,0,0,0-.6.6V16.8a.6.6,0,0,0,.6.6H16.7a.6.6,0,0,0,.6-.6V13.1a.7.7,0,0,1,.7-.8.7.7,0,0,1,.8.8v3.7A2.1,2.1,0,0,1,16.7,18.9Z"/><path class="cls-2" d="M21,22H7.8a.7.7,0,0,1-.7-.8.7.7,0,0,1,.7-.7H20.3V13a.7.7,0,0,1,.7-.8.7.7,0,0,1,.8.8v8.2a.7.7,0,0,1-.8.8Z"/><path class="cls-3" d="M21.5,2.5h0a1,1,0,0,0-1.4,0l-8.3,7.9L8.4,7.3A.8.8,0,0,0,7.7,7h0a.9.9,0,0,0-.9.9.9.9,0,0,0,.3.7l3.8,3.7H11a1.1,1.1,0,0,0,.7.3h.1a1.1,1.1,0,0,0,.7-.3h.1l8.9-8.5A.9.9,0,0,0,21.5,2.5Z"/></svg>