<svg xmlns="http://www.w3.org/2000/svg" viewBox="0 0 24 24"><defs></defs><title>easgdgl</title><path class="a" d="M7,14.8h9.9a.8.8,0,0,0,.7-.8c0-.5-.3-.8-.6-.8H7a.7.7,0,0,0-.8.8A.8.8,0,0,0,7,14.8Z"/><path class="a" d="M9.9,3.4h3.6a1.1,1.1,0,0,0,1-1.2c0-.7-.4-1.2-1-1.2H9.9A1.1,1.1,0,0,0,8.8,2.2,1.2,1.2,0,0,0,9.9,3.4Z"/><path class="a" d="M7,16.8a.7.7,0,0,0-.8.8.8.8,0,0,0,.8.8h9.9a.8.8,0,0,0,.7-.8c0-.4-.3-.8-.6-.8Z"/><path class="a" d="M19.1,1.8h-.7a.7.7,0,0,0-.8.8.8.8,0,0,0,.8.8h.7a1.5,1.5,0,0,1,1.4,1.5V19.8a1.5,1.5,0,0,1-1.4,1.6H4.8a1.5,1.5,0,0,1-1.4-1.6V4.9A1.5,1.5,0,0,1,4.8,3.4h.7a.8.8,0,0,0,.7-.8.7.7,0,0,0-.7-.8H4.8A3,3,0,0,0,2,4.9V19.8A3,3,0,0,0,4.9,23H19.1A3,3,0,0,0,22,19.8V4.9A3.1,3.1,0,0,0,19.1,1.8Z"/><polygon class="a" points="9.5 10.4 7.4 10.4 7.4 9 9.3 9 9.3 8.1 7.4 8.1 7.4 6.9 9.4 6.9 9.4 6 6.6 6 6.6 11.2 9.5 11.2 9.5 10.4"/><path class="a" d="M11.5,6,9.8,11.2h.8L11,10h1.7l.3,1.2h.9L12.2,6Zm-.2,3.1.5-1.9.6,1.9Z"/><path class="a" d="M15.8,9c.7.1,1,.4,1,.7s-.3.8-.9.8-.9-.4-1.1-1.1l-.7.2A1.7,1.7,0,0,0,16,11.3c1-.1,1.6-.6,1.6-1.5s-.5-1.5-1.7-1.7-.9-.4-.9-.7.3-.6.8-.6.8.3.9.9l.8-.3a1.6,1.6,0,0,0-1.7-1.5,1.6,1.6,0,0,0-1.6,1.5C14.2,8.2,14.7,8.7,15.8,9Z"/></svg>