<svg id="图层_1" data-name="图层 1" xmlns="http://www.w3.org/2000/svg" viewBox="0 0 24 24"><defs><style>.cls-1{fill:#c90;}.cls-2{fill:#666;}</style></defs><title>fenljh</title><path class="cls-1" d="M15.3,14.7H8.8c-.2,0-.4.1-.4.3v6.5a.4.4,0,0,0,.4.4h6.5c.2,0,.3-.2.3-.4V15A.3.3,0,0,0,15.3,14.7Zm-1.4,5.4H10.2V16.4h3.7Z"/><path class="cls-2" d="M15.1,2.1H8.9a.4.4,0,0,0-.3.4V8.7a.5.5,0,0,0,.3.3h6.2a.4.4,0,0,0,.4-.3V2.5A.4.4,0,0,0,15.1,2.1ZM13.8,7.3H10.2V3.8h3.6Z"/><path class="cls-2" d="M23.7,2.1H17.5a.4.4,0,0,0-.3.4V8.7a.5.5,0,0,0,.3.3h6.2a.5.5,0,0,0,.3-.3V2.5A.4.4,0,0,0,23.7,2.1ZM22.3,7.3H18.9V3.8h3.5Z"/><path class="cls-2" d="M6.5,2.1H.3a.4.4,0,0,0-.3.4V8.7A.5.5,0,0,0,.3,9H6.5a.3.3,0,0,0,.3-.3V2.5C6.8,2.3,6.7,2.1,6.5,2.1ZM5.2,7.3H1.7V3.8H5.2Z"/><rect class="cls-2" x="2.1" y="11.2" width="19.9" height="1.89"/></svg>