<svg id="图层_1" data-name="图层 1" xmlns="http://www.w3.org/2000/svg" viewBox="0 0 24 24"><defs></defs><title>gongxugl</title><path class="cls-1" d="M23.2,9.8c0-.3-.3-.5-.6-.6a4.4,4.4,0,0,1-2.5-1.9,4,4,0,0,1-.4-3.2,1,1,0,0,0-.2-.9A13.9,13.9,0,0,0,15.8,1a.8.8,0,0,0-.9.3A3.8,3.8,0,0,1,12,2.5h0A3.8,3.8,0,0,1,9.1,1.3.8.8,0,0,0,8.2,1,13.9,13.9,0,0,0,4.5,3.2a1,1,0,0,0-.2.9,4,4,0,0,1-.4,3.2A3.7,3.7,0,0,1,1.4,9.2q-.6.2-.6.6A8.6,8.6,0,0,0,.6,12a8.6,8.6,0,0,0,.2,2.2c0,.3.3.5.6.6a3.7,3.7,0,0,1,2.5,1.9,4,4,0,0,1,.4,3.2,1,1,0,0,0,.2.9A13.9,13.9,0,0,0,8.2,23a.8.8,0,0,0,.9-.3A3.8,3.8,0,0,1,12,21.5h0a3.8,3.8,0,0,1,2.9,1.2.9.9,0,0,0,.6.3h.3a13.9,13.9,0,0,0,3.7-2.2,1,1,0,0,0,.2-.9,4,4,0,0,1,.4-3.2,4.4,4.4,0,0,1,2.5-1.9c.3-.1.6-.3.6-.6a8.2,8.2,0,0,0,.2-2.2A8.6,8.6,0,0,0,23.2,9.8Zm-1.4,3.6a5.5,5.5,0,0,0-3.1,2.5,5.5,5.5,0,0,0-.6,4,9.5,9.5,0,0,1-2.4,1.4A5.5,5.5,0,0,0,12,19.9h0a5.5,5.5,0,0,0-3.7,1.4,11.6,11.6,0,0,1-2.4-1.4,5.5,5.5,0,0,0-.6-4,5.5,5.5,0,0,0-3.1-2.5c0-.5-.1-.9-.1-1.4s.1-.9.1-1.4A5.5,5.5,0,0,0,5.3,8.1a5.5,5.5,0,0,0,.6-4A9.5,9.5,0,0,1,8.3,2.7,5.5,5.5,0,0,0,12,4.1h0a5.5,5.5,0,0,0,3.7-1.4,9.5,9.5,0,0,1,2.4,1.4,5.5,5.5,0,0,0,.6,4,5.5,5.5,0,0,0,3.1,2.5c0,.5.1,1,.1,1.4S21.8,12.9,21.8,13.4Z"/><path class="cls-1" d="M16.4,8.3l-.2.3-.4.4c-.1.1-.3.2-.4.4l-.5.2-.5-.2-.2-.5a.8.8,0,0,1,.2-.5c.9-.9.9-.9.8-1.1h-.1a3.2,3.2,0,0,0-3.6.6,3.2,3.2,0,0,0-.7,3.1L7.5,14.1a1.6,1.6,0,0,0,0,2.2,1.5,1.5,0,0,0,1.1.4,1.5,1.5,0,0,0,1.1-.4L12.9,13a3.1,3.1,0,0,0,3.7-4.3Zm-1.2,3.1a2.2,2.2,0,0,1-2.4.4h-.1L8.8,15.5H8.3a.4.4,0,0,1,0-.6l3.8-3.8v-.2a1.8,1.8,0,0,1,.4-2.3l.8-.5a1.9,1.9,0,0,0,.4,2.1,1.7,1.7,0,0,0,2,.3A1.3,1.3,0,0,1,15.2,11.4Z"/></svg>