<svg id="图层_1" data-name="图层 1" xmlns="http://www.w3.org/2000/svg" viewBox="0 0 24 24"><defs></defs><title>gongyeyy</title><path class="cls-1" d="M20.5,2.1H14a1.5,1.5,0,0,0-1.5,1.5v6.5A1.5,1.5,0,0,0,14,11.6h6.5A1.5,1.5,0,0,0,22,10.1V9a.7.7,0,0,0-.8-.8.7.7,0,0,0-.7.8v1.1H14V3.6h6.5v.7a.8.8,0,0,0,.7.8.8.8,0,0,0,.8-.8V3.5A1.5,1.5,0,0,0,20.5,2.1Zm-10.4,0H3.6A1.5,1.5,0,0,0,2.1,3.6v6.5a1.5,1.5,0,0,0,1.5,1.5h6.5a1.5,1.5,0,0,0,1.5-1.5V3.6A1.5,1.5,0,0,0,10.1,2.1Zm0,8H3.6V3.6h6.5ZM10,12.4H3.5A1.5,1.5,0,0,0,2,13.9v6.5a1.5,1.5,0,0,0,1.5,1.5H10a1.5,1.5,0,0,0,1.5-1.5V13.9A1.5,1.5,0,0,0,10,12.4Zm0,8H3.5V13.9H10Zm10.4-8H13.9a1.5,1.5,0,0,0-1.5,1.5v6.5a1.5,1.5,0,0,0,1.5,1.5h6.5a1.5,1.5,0,0,0,1.5-1.5V13.9A1.5,1.5,0,0,0,20.4,12.4Zm0,8H13.9V13.9h6.5v6.5Z"/></svg>