<svg id="图层_1" data-name="图层 1" xmlns="http://www.w3.org/2000/svg" viewBox="0 0 24 24"><title>hemoshu</title><path class="cls-1" d="M16.93,12.92a1.81,1.81,0,0,0-1.49.78l-1.5-2.34a1.49,1.49,0,0,0,.15-.79A1.77,1.77,0,0,0,12.3,8.7a1.85,1.85,0,0,0-1.79,1.87v.16L7.82,13.24a2.68,2.68,0,0,0-1.19-.32,2.05,2.05,0,0,0-2.09,2,2.15,2.15,0,0,0,2.09,2,2,2,0,0,0,1.94-2,1.49,1.49,0,0,0-.15-.79l2.68-2.34a1.34,1.34,0,0,0,1.2.62,1.1,1.1,0,0,0,.75-.31l1.49,2.35a2,2,0,0,0-.15.94,2.58,2.58,0,0,0,2.54,2.66,2.55,2.55,0,0,0,2.54-2.51A2.58,2.58,0,0,0,16.93,12.92ZM6.62,16.05a1,1,0,0,1-1-1.09,1,1,0,0,1,1-.94,1,1,0,0,1,.9.94C7.52,15.58,7.22,16.05,6.62,16.05Zm5.68-4.69a.73.73,0,0,1-.75-.79.72.72,0,0,1,.75-.78.82.82,0,0,1,.75.78A.73.73,0,0,1,12.3,11.36Zm4.63,5.79a1.45,1.45,0,0,1-1.5-1.57,1.5,1.5,0,1,1,3,0A1.45,1.45,0,0,1,16.93,17.15Z"/><path class="cls-1" d="M21,6.53A.75.75,0,0,0,21,6.37c-1.32-2.55-.8-1.56-2.07-4a.35.35,0,0,0-.26-.34.4.4,0,0,0-.3-.06H5.66a.46.46,0,0,0-.51.27C3.79,4.85,4.35,3.78,3,6.37L3,6.53a3.24,3.24,0,0,0-.37,1.64v11c0,2,.76,2.77,2.64,2.78H18.87c1.75,0,2.54-.85,2.54-2.66,0-3.7,0-7.41,0-11.11A3.12,3.12,0,0,0,21,6.53ZM18.2,3.3l.44.85.05.09c-.39-.74.29.56,0,0l.68,1.32a4.41,4.41,0,0,0-.52,0H18.2ZM6.48,2.85H17.6v2.7H6.48ZM5.22,4.35c-.06.12,0,0,0-.09h0v0c.08-.15.17-.32.08-.14.17-.33.35-.67.51-1V5.56H5.06l-.48,0ZM20.06,19.07a2.26,2.26,0,0,1-.16.95l-1-1.8a.24.24,0,0,0-.34-.1l-.1.06a.27.27,0,0,0-.09.36l1.06,1.92a2.28,2.28,0,0,1-.82.14H5.45a1.83,1.83,0,0,1-.84-.15L6.12,17.7A.27.27,0,0,0,6,17.34l-.1-.06a.24.24,0,0,0-.34.1L4.17,20A2.13,2.13,0,0,1,4,19.07V8.41c0-1.12.38-1.53,1.44-1.53h.41v.53a.3.3,0,0,0,.29.31h0a.31.31,0,0,0,.3-.31V6.88H17.6v.77a.3.3,0,0,0,.29.31h0a.3.3,0,0,0,.3-.31V6.88h.42c1.05,0,1.43.41,1.43,1.53Z"/><polygon class="cls-1" points="18.2 8.94 17.6 8.94 17.6 8.94 17.6 12.92 18.2 12.92 18.2 8.94"/><rect class="cls-1" x="5.87" y="8.7" width="0.61" height="3.98"/><rect class="cls-1" x="8.9" y="14.33" width="4.85" height="0.64"/></svg>