<svg xmlns="http://www.w3.org/2000/svg" viewBox="0 0 24 24"><defs></defs><title>htgl</title><rect class="a" x="7.9" y="12.3" width="6.3" height="1.38" rx="0.7" ry="0.7"/><path class="a" d="M14.9,16.5H3.1a.8.8,0,0,1-.9-.8V4.8A.8.8,0,0,1,3.1,4H19.9a.8.8,0,0,1,.8.8V7.7l1.5.4V4.3a1.8,1.8,0,0,0-1.9-1.8H2.6A1.9,1.9,0,0,0,.7,4.3V16.1A1.9,1.9,0,0,0,2.6,18H16.4A5.4,5.4,0,0,1,14.9,16.5Z"/><rect class="a" x="7.9" y="7.1" width="6.3" height="1.38" rx="0.7" ry="0.7"/><rect class="a" x="4.2" y="9.7" width="2.7" height="1.38" rx="0.7" ry="0.7"/><rect class="a" x="7.9" y="9.7" width="6.3" height="1.38" rx="0.7" ry="0.7"/><path class="a" d="M17.9,19.9H5c-.6,0-1.1.3-1.1.8s.5.8,1.1.8H17.9c.7,0,1.1-.3,1.1-.8S18.6,19.9,17.9,19.9Z"/><path class="a" d="M23.3,13.2h0a.7.7,0,0,0-.7-.7.4.4,0,0,1-.4-.4h-.1a.4.4,0,0,0-.1-.3h0c-.1-.1-.1-.3.1-.5l.3-.3v-.4l-.7-.7h-.4L21,10a.3.3,0,0,1-.5.1h-.4a.7.7,0,0,1-.4-.5.7.7,0,0,0-.4-.7h-.4a.7.7,0,0,0-.7.7.5.5,0,0,1-.3.5h-.6L17,10h-.1l-.3-.3h-.3L16,10l-.4.4v.4l.3.3a.6.6,0,0,1,.1.4h0l-.2.3h0c-.1.2-.2.4-.4.4a.7.7,0,0,0-.7.7h0v.2a.8.8,0,0,0,.7.5c.2,0,.4.1.4.3h0c.1.2.1.3.2.4h0v.5l-.3.4h-.1c0,.1,0,.2.1.2l.7.7h.2a.1.1,0,0,0,.1-.1l.4-.3a.4.4,0,0,1,.5-.1h0l.4.2h0c.2.1.3.2.3.4a.7.7,0,0,0,.7.7h.2a.7.7,0,0,0,.7-.7c0-.2.1-.3.3-.4h0a.1.1,0,0,0,.1-.1h.3a.4.4,0,0,1,.5.1l.3.3h.4l.7-.7c.1,0,.1-.1.1-.2h-.1l-.3-.4a.4.4,0,0,1-.1-.5h0c.1-.1.1-.3.2-.4h0c0-.2.2-.3.4-.3a.7.7,0,0,0,.7-.7Zm-3.4,1.7-.7.2h-.3a2.7,2.7,0,0,1-1.4-.7,2.2,2.2,0,0,1-.5-1.1h0a2.2,2.2,0,0,1,.5-1.4l.3-.3a1.6,1.6,0,0,1,1.2-.4h.2l.7.2A2.2,2.2,0,0,1,21,13.2,2,2,0,0,1,19.9,14.9Z"/><rect class="a" x="4.2" y="12.3" width="2.7" height="1.38" rx="0.7" ry="0.7"/><rect class="a" x="4.2" y="7.1" width="2.7" height="1.38" rx="0.7" ry="0.7"/></svg>