<svg xmlns="http://www.w3.org/2000/svg" viewBox="0 0 24 24"><defs></defs><title>jcsjk</title><path class="a" d="M22,5.1c0-2.5-5-3.8-10-3.8S2.7,2.4,2.1,4.6a.9.9,0,0,0-.1.5V19.8c0,.2.1.3.2.5s2.4,2.4,9.9,2.4,9.5-2.2,9.7-2.5a.6.6,0,0,0,.1-.4V5.6A1.1,1.1,0,0,0,22,5.1Zm-1.6,9.8h-.6a.1.1,0,0,0-.1.1h-2a.1.1,0,0,1-.1.1H15.8a.1.1,0,0,0-.1.1H6.6c-.1,0-.2,0-.2-.1H4.2c0-.1,0-.1-.1-.1H3.5v-3H5.7l.4.2H20.5v2.9Zm0-4.8h-.2a.1.1,0,0,1-.1.1H18.3c-.1,0-.2,0-.2.1H8.3a.1.1,0,0,1-.1-.1H3.5V7.1h.1c0,.1.1.1.2.2h.1l.3.2h.1l.3.2h8c3.1-.1,6-.6,7.8-1.6v2.9ZM12,2.7c5.5,0,8.5,1.6,8.5,2.4h0l-.4.5h-.3a5.5,5.5,0,0,1-2,.8H12c-4.6,0-7.4-1.1-8.2-1.9A.4.4,0,0,1,3.6,5C3.6,4.3,6.6,2.7,12,2.7Zm8.4,16.8c-.5.4-2.7,1.8-8.3,1.8s-7.9-1.4-8.6-1.9V16.5a.1.1,0,0,1,.1.1H9a.1.1,0,0,1,.1.1H15a.1.1,0,0,0,.1-.1h5.3v2.9Z"/></svg>