<svg id="图层_1" data-name="图层 1" xmlns="http://www.w3.org/2000/svg" viewBox="0 0 24 24"><defs><style>.cls-1{fill:#666;}.cls-2{fill:#c90;}</style></defs><title>jiaosdy</title><path class="cls-1" d="M22.9,9.9H21l-1.4-2-.3-.4-.2.4-1.4,2H15.9l2.4-3.1L16,3.7h1.9L19,5.6l.3.3v.2l.3-.5,1.1-1.9h1.9L20.4,6.8Z"/><path class="cls-1" d="M22.3,13.7l-2.2,4.8a2.4,2.4,0,0,1-2.3,1.8l-.9-.2V19l.7.2c.5,0,.8-.1.9-.4l.3-.6-2.2-4.5h1.8l1,2.7c.1.2.1.4.2.6h0a.8.8,0,0,1,.1-.4c0-.1,0-.1.1-.2l.9-2.7Z"/><rect class="cls-1" x="1.1" y="5" width="11.9" height="3.57"/><rect class="cls-2" x="1.1" y="15.2" width="11.9" height="3.57"/></svg>