<svg xmlns="http://www.w3.org/2000/svg" viewBox="0 0 24 24"><defs></defs><title>jsgl</title><path class="a" d="M13.9,10.4a7.4,7.4,0,0,1,3.6-.7,8,8,0,0,0,.4-4.1A5.9,5.9,0,0,0,11.2.9c-3.1.6-5.8,3-5.2,6.2a9,9,0,0,0,.8,2.5L1.2,17.8A1.3,1.3,0,0,0,.9,19l.2,1.4c-.2-1.3.1.5.3.5H3.3a1.7,1.7,0,0,0,1-.7l2.2-3.5h0l2,.2,2.6-4.2A6.2,6.2,0,0,1,13.9,10.4Zm-11.2,8-.5.3v-.6l5.3-7.6.4.2Zm8-14.3a2.7,2.7,0,0,1,3.7-.7,2.8,2.8,0,0,1,.7,3.9c-.9,1.2-1.7.3-3-.5S9.8,5.4,10.7,4.1Z"/><path class="a" d="M23.1,18.1V16.3L21.6,16a5.4,5.4,0,0,0-.5-1.1l.9-1.3h0l-1.2-1.2h0l-1.3.8-1.1-.4L18,11.2H16.3L16,12.8l-1.1.4-1.3-.8-1.3,1.2.9,1.3a5.4,5.4,0,0,0-.5,1.1l-1.5.3v1.8l1.5.3.5,1.1-.9,1.3L13.6,22l1.3-.8,1.1.4.3,1.6H18l.4-1.6,1.1-.4,1.3.8h0L22,20.8h0l-.9-1.3a5.4,5.4,0,0,0,.5-1.1Zm-5.9,1.2a2.1,2.1,0,0,1-2.1-2.1,2.1,2.1,0,0,1,2.1-2.1,2,2,0,0,1,2,2.1A2.1,2.1,0,0,1,17.2,19.3Z"/></svg>