<svg xmlns="http://www.w3.org/2000/svg" viewBox="0 0 24 24"><defs></defs><title>jzk</title><path class="a" d="M4.2,7a.7.7,0,0,1,.7-.6H19.1a.7.7,0,0,1,.7.6.7.7,0,0,1-.7.7H4.9A.7.7,0,0,1,4.2,7ZM6,5.5H18a.7.7,0,0,0,.7-.7.8.8,0,0,0-.2-.4L18,4.2H6l-.5.2-.2.4A.7.7,0,0,0,6,5.5Zm17.1,6.1v9.6a.9.9,0,0,1-.3.6.8.8,0,0,1-.6.2H1.8a.8.8,0,0,1-.6-.2.9.9,0,0,1-.3-.6V11.6a.9.9,0,0,1,.9-.8H22.2A.9.9,0,0,1,23.1,11.6Zm-20.9.5v8.6H21.8V12.1Zm2.7,6.6.4-.2.2-.4V14.8a.8.8,0,0,0-.2-.5l-.4-.2a.7.7,0,0,0-.7.7v3.3A.7.7,0,0,0,4.9,18.7Zm11.4-2.3a2,2,0,0,1,.7-1.6,2.4,2.4,0,0,1,1.6-.7,2.3,2.3,0,1,1-2.3,2.3Zm2.3,1a1,1,0,0,0,1-1,1.1,1.1,0,0,0-1-1,1,1,0,0,0-1,1A.9.9,0,0,0,18.6,17.4Zm-7.1.6a2,2,0,0,1-.7-1.6,2,2,0,0,1,.7-1.6,2.4,2.4,0,0,1,1.6-.7,2.3,2.3,0,1,1,0,4.6A2,2,0,0,1,11.5,18Zm2.6-1.6a1,1,0,0,0-2,0,1,1,0,0,0,2,0ZM8.2,18.7h0a.6.6,0,0,0,.6-.6V14.8a.7.7,0,0,0-.6-.7l-.5.2a.8.8,0,0,0-.2.5v3.3A.7.7,0,0,0,8.2,18.7ZM2.7,9.9H21.3a.7.7,0,0,0,.7-.7.7.7,0,0,0-.7-.6H2.7a.7.7,0,0,0-.7.6A.7.7,0,0,0,2.7,9.9ZM8.2,3.3h7.6a.7.7,0,0,0,.7-.7.7.7,0,0,0-.7-.6H8.2a.7.7,0,0,0-.7.6A.7.7,0,0,0,8.2,3.3Z"/></svg>