<svg id="图层_1" data-name="图层 1" xmlns="http://www.w3.org/2000/svg" viewBox="0 0 24 24"><defs><style>.cls-1{fill:#666;}.cls-2{fill:#fff;}.cls-3{fill:#c90;}</style></defs><title>kmeansjl</title><path class="cls-1" d="M22.1,20.4V21H12.9v-.6c1.5,0,2.2-.2,2.1-.7a2.4,2.4,0,0,0-.6-1.1l-5-6-.8.6v5.2c-.1,1.3.7,2,2.5,2V21H1.9v-.6c1.7,0,2.5-.7,2.4-2V5.6c0-1.2-.8-1.9-2.4-2V3h9.2v.6c-1.8,0-2.6.8-2.5,2.5v5.7l6-5.8c.7-.6,1-1.1,1-1.4s-.7-.9-2.4-1V3h7.9v.6c-1.8-.2-4.7,1.8-8.7,6.1l8.3,10a1.3,1.3,0,0,0,1,.7Z"/><ellipse class="cls-2" cx="6" cy="9.5" rx="1.2" ry="1.2"/><ellipse class="cls-2" cx="8.9" cy="10.9" rx="1.2" ry="1.2"/><ellipse class="cls-2" cx="4.6" cy="12.4" rx="1.2" ry="1.2"/><ellipse class="cls-2" cx="7.5" cy="13.8" rx="1.2" ry="1.2"/><ellipse class="cls-3" cx="15.1" cy="15" rx="1" ry="1"/><ellipse class="cls-3" cx="17.6" cy="16.2" rx="1" ry="1"/><ellipse class="cls-3" cx="13.9" cy="17.4" rx="1" ry="1"/><ellipse class="cls-3" cx="16.4" cy="18.6" rx="1" ry="1"/><ellipse class="cls-3" cx="17.3" cy="4.3" rx="0.9" ry="0.9"/><ellipse class="cls-3" cx="19.6" cy="5.5" rx="0.9" ry="0.9"/><ellipse class="cls-3" cx="16.1" cy="6.6" rx="0.9" ry="0.9"/><ellipse class="cls-3" cx="18.5" cy="7.8" rx="0.9" ry="0.9"/></svg>