<svg xmlns="http://www.w3.org/2000/svg" viewBox="0 0 24 24"><defs></defs><title>lisgdjs</title><path class="a" d="M22.7,21.8l-2.4-2a.7.7,0,0,0-1,.1.8.8,0,0,0,.1.9l2.5,2,.4.2.5-.2A.7.7,0,0,0,22.7,21.8Z"/><path class="a" d="M16.3,12.9a4,4,0,1,0,4,4A4,4,0,0,0,16.3,12.9Zm0,6.7A2.7,2.7,0,1,1,19,16.9,2.7,2.7,0,0,1,16.3,19.6Z"/><path class="a" d="M12.3,21.7H2.8a.5.5,0,0,1-.4-.5V2.8a.5.5,0,0,1,.4-.5H14.7v4a.6.6,0,0,0,.6.6h4.8v6.4a.7.7,0,0,0,.7.7.7.7,0,0,0,.6-.7V6.4c0-.2,0-.4-.2-.5L16.3,1.2a.5.5,0,0,0-.4-.2H2.8A1.8,1.8,0,0,0,1,2.8V21.2A1.8,1.8,0,0,0,2.8,23h9.5a.7.7,0,0,0,.7-.7A.7.7,0,0,0,12.3,21.7ZM16,2.7l3,2.9H16Z"/><path class="a" d="M11.8,13.7a.7.7,0,0,0-.7-.7H4.9a.7.7,0,1,0,0,1.4h6.2A.7.7,0,0,0,11.8,13.7Z"/><path class="a" d="M4.9,15.9a.7.7,0,0,0,0,1.4H10a.7.7,0,1,0,0-1.4Z"/><path class="a" d="M4.9,8.6H10a.7.7,0,0,0,.7-.7.7.7,0,0,0-.7-.6H4.9a.7.7,0,0,0-.7.6A.7.7,0,0,0,4.9,8.6Z"/><path class="a" d="M12.7,10.8a.7.7,0,0,0-.7-.7H4.9a.7.7,0,1,0,0,1.4H12A.7.7,0,0,0,12.7,10.8Z"/></svg>