<svg id="图层_1" data-name="图层 1" xmlns="http://www.w3.org/2000/svg" viewBox="0 0 24 24"><defs></defs><title>lvdanxinxsz</title><path class="cls-1" d="M22.8,17v-.2a.9.9,0,0,0-1-.9.6.6,0,0,1-.6-.5h0c-.1-.2-.1-.4-.2-.5h0a.8.8,0,0,1,.1-.8l.5-.4v-.5l-1.1-1.1h-.4l-.5.5a.6.6,0,0,1-.7.1h-.6a.6.6,0,0,1-.4-.6,1.1,1.1,0,0,0-.7-1h-.5a1,1,0,0,0-1,1,.6.6,0,0,1-.4.6h0l-.5.2h-.4l-.4-.2h-.1l-.3-.4h-.5l-.4.4-.7.7v.5l.5.4a.8.8,0,0,1,.2.5.4.4,0,0,1-.1.3h0c-.1.1-.1.3-.2.5h0a.6.6,0,0,1-.6.5.9.9,0,0,0-1,.9v.5a1.1,1.1,0,0,0,1,.7.7.7,0,0,1,.6.4h0c.1.1.1.3.2.5h0a.9.9,0,0,1,.1.5l-.2.3-.4.4a.4.4,0,0,0-.1.3.3.3,0,0,0,.1.2l1,1c0,.1.1.1.2.1h.3l.4-.4a.7.7,0,0,1,.7-.2h.1l.5.2h0a.5.5,0,0,1,.4.6,1.1,1.1,0,0,0,1,1H17a1,1,0,0,0,.9-1,.7.7,0,0,1,.4-.6h.6a.7.7,0,0,1,.7.2l.5.4c0,.1.1.1.2.1h.3l1-1v-.2c0-.1-.1-.2-.1-.3l-.5-.5c-.2-.1-.2-.4-.1-.7h0a1.7,1.7,0,0,0,.2-.5h0a.8.8,0,0,1,.6-.4.9.9,0,0,0,1-1Zm-4.7,2.5-1,.3h-.4a2.5,2.5,0,0,1-1.9-.9,2.6,2.6,0,0,1-.7-1.6c0-.1-.1-.1-.1-.2a3.2,3.2,0,0,1,.7-1.9,1,1,0,0,1,.5-.4,2.3,2.3,0,0,1,1.6-.6h.3l1,.4A2.6,2.6,0,0,1,19.6,17,2.8,2.8,0,0,1,18.1,19.5ZM10.9,6c0-.4.2-.8.6-.8h4.8c.3,0,.6.4.6.8s-.3.8-.6.8H11.5C11.1,6.8,10.9,6.4,10.9,6ZM9.8,4.7a.7.7,0,0,1,.1,1.1L6.7,9A.8.8,0,0,1,5.6,9L4,7.4A.8.8,0,1,1,5.1,6.3l1.1,1L8.7,4.7A.8.8,0,0,1,9.8,4.7ZM6.9,11.4a2.8,2.8,0,0,0,0,5.5,2.8,2.8,0,1,0,0-5.5ZM7.8,15h0a1.4,1.4,0,0,1-1.7,0,1.2,1.2,0,0,1,0-1.7,1.4,1.4,0,0,1,1.7,0,1.1,1.1,0,0,1,.3.8A1.2,1.2,0,0,1,7.8,15Zm5.3-4.2H11.7a.8.8,0,0,1-.8-.8h0a.8.8,0,0,1,.8-.8h1.4a.9.9,0,0,1,.8.8h0A.9.9,0,0,1,13.1,10.8ZM10.6,21.4a.8.8,0,0,1,0,1.6h-7a2.5,2.5,0,0,1-2.4-2.5V3.5A2.5,2.5,0,0,1,3.6,1H17.5A2.5,2.5,0,0,1,20,3.5V8a.8.8,0,0,1-1.6,0V3.5a.9.9,0,0,0-.9-.9H3.6a.9.9,0,0,0-.9.9v17a.9.9,0,0,0,.9.9Z"/></svg>