<svg id="图层_1" data-name="图层 1" xmlns="http://www.w3.org/2000/svg" viewBox="0 0 24 24"><title>moxiushu</title><path class="cls-1" d="M19.2,4.62a2.32,2.32,0,0,1,.37,4.62,2.16,2.16,0,0,1-.84,0,.15.15,0,0,0-.19.09L16,13.76c-.09.16,0,.18.09.24a2,2,0,0,1-.51,3.46,2,2,0,0,1-2.4-2.88c.08-.13.08-.18-.05-.28Q11.28,13,9.47,11.59a.26.26,0,0,0-.3,0,1.57,1.57,0,0,1-.88.14.2.2,0,0,0-.24.12c-.36.63-.72,1.26-1.09,1.88A.22.22,0,0,0,7,14a1.46,1.46,0,0,1,.15,1.69,1.53,1.53,0,0,1-2.8-.28,1.53,1.53,0,0,1,1.73-2c.13,0,.18,0,.25-.11.34-.6.68-1.2,1-1.79a.2.2,0,0,0,0-.31,1.72,1.72,0,0,1-.42-2,1.73,1.73,0,0,1,3.26.22A1.64,1.64,0,0,1,10,10.84c-.06.11,0,.16,0,.23l3.66,2.73a.18.18,0,0,0,.24,0A1.89,1.89,0,0,1,15,13.6c.14,0,.19,0,.26-.14q1.26-2.21,2.55-4.4c.07-.13.08-.2-.05-.3A2.32,2.32,0,0,1,19.2,4.62ZM24,20.35v1.38H1.5v0H0V2.25H1.5v18.1Z"/></svg>