<svg id="图层_1" data-name="图层 1" xmlns="http://www.w3.org/2000/svg" viewBox="0 0 24 24"><defs><style>.cls-1{fill:#666;}</style></defs><title>moxingdy</title><path class="cls-1" d="M23,8.2h0V7.9l-4-6.1a.5.5,0,0,0-.5-.3H5.6a.5.5,0,0,0-.5.3l-4,6.1v.2H1a.4.4,0,0,0,.1.3L11.5,22.3h.2a.1.1,0,0,1,.1.1h.4a.1.1,0,0,1,.1-.1h.2L22.9,8.6a.4.4,0,0,0,.1-.3ZM11.4,2.7V7.6H7.2L9.7,2.7Zm2.9,0,2.5,4.9H12.6V2.7ZM12.6,8.8h4.2L12.6,18.9ZM11.4,18.9,7.2,8.8h4.2ZM5.9,8.8l3.7,9-6.8-9Zm12.2,0h3.1l-6.8,9Zm3.2-1.2H18.1L15.7,2.7H18ZM6,2.7H8.3L5.9,7.6H2.7Z"/></svg>