<svg id="图层_1" data-name="图层 1" xmlns="http://www.w3.org/2000/svg" viewBox="0 0 24 24"><defs></defs><title>paixu</title><rect class="cls-1" x="12" y="1.9" width="11" height="2" rx="0.5" ry="0.5"/><rect class="cls-1" x="12" y="7.9" width="9" height="2" rx="0.5" ry="0.5"/><rect class="cls-1" x="12" y="13.9" width="6" height="2" rx="0.5" ry="0.5"/><rect class="cls-1" x="12" y="19.9" width="4" height="2" rx="0.5" ry="0.5"/><path class="cls-1" d="M9.9,16.1H7V2.4a.5.5,0,0,0-.5-.5h-2a.5.5,0,0,0-.5.5V16.1H1.2a.2.2,0,0,0-.2.2v.2L5.4,22c0,.1.1.1.2.1h.2l4.3-5.5a.1.1,0,0,0,0-.2A.2.2,0,0,0,9.9,16.1Z"/></svg>