<svg xmlns="http://www.w3.org/2000/svg" viewBox="0 0 24 24"><defs></defs><title>peibk</title><path class="a" d="M15.1,15.5H8.9a.3.3,0,0,0-.3.3V22a.3.3,0,0,0,.3.3h6.2c.2,0,.4-.1.4-.3V15.8C15.5,15.6,15.3,15.5,15.1,15.5Zm-1.3,5.2H10.2V17.2h3.6Z"/><path class="a" d="M23.7,15.5H17.5a.3.3,0,0,0-.3.3V22a.3.3,0,0,0,.3.3h6.2A.3.3,0,0,0,24,22V15.8A.3.3,0,0,0,23.7,15.5Zm-1.4,5.2H18.9V17.2h3.5Z"/><path class="a" d="M6.5,15.5H.3a.3.3,0,0,0-.3.3V22a.3.3,0,0,0,.3.3H6.5a.3.3,0,0,0,.3-.3V15.8A.3.3,0,0,0,6.5,15.5ZM5.2,20.7H1.7V17.2H5.2Z"/><rect class="a" x="3.2" y="11.9" width="17.7" height="1.68"/><path class="a" d="M7.7,7.1h.4a.5.5,0,0,1,.5.3l.2.6a.5.5,0,0,1-.1.6l-.3.3a.5.5,0,0,0,0,.5l.5.5c.2.2.4.2.5,0h.1l.3-.3a.4.4,0,0,1,.5-.1l.6.3a.4.4,0,0,1,.4.4v.5a.3.3,0,0,0,.3.3h.8a.3.3,0,0,0,.3-.3v-.5a.4.4,0,0,1,.4-.4l.6-.3c.1-.1.4,0,.5.1l.3.3a.4.4,0,0,0,.6,0h0l.5-.5a.5.5,0,0,0,0-.5l-.3-.3a.5.5,0,0,1-.1-.6l.2-.6a.5.5,0,0,1,.5-.3h.4a.4.4,0,0,0,.4-.4V6a.4.4,0,0,0-.4-.4h-.4a.5.5,0,0,1-.5-.3l-.2-.6c-.1-.2-.1-.5.1-.6l.3-.3a.5.5,0,0,0,0-.5l-.5-.5a.4.4,0,0,0-.6,0l-.3.3c-.1.1-.4.2-.5.1l-.6-.3a.4.4,0,0,1-.4-.4V2a.3.3,0,0,0-.3-.3h-.8a.3.3,0,0,0-.3.3v.5a.4.4,0,0,1-.4.4l-.6.3c-.1.1-.4,0-.5-.1l-.4-.3c-.1-.2-.3-.2-.5,0l-.5.5a.5.5,0,0,0,0,.5l.3.3c.2.1.2.4.1.6l-.2.6a.5.5,0,0,1-.5.3H7.7a.4.4,0,0,0-.4.4v.7A.4.4,0,0,0,7.7,7.1ZM12,4.5a1.8,1.8,0,1,1-1.8,1.8A1.8,1.8,0,0,1,12,4.5Z"/></svg>