<svg id="图层_1" data-name="图层 1" xmlns="http://www.w3.org/2000/svg" viewBox="0 0 24 24"><defs></defs><title>peizhigl</title><path class="cls-1" d="M13.5,12.3H8.4a.7.7,0,0,0-.7.7h0a.8.8,0,0,0,.7.8h5.1a.8.8,0,0,0,.7-.8h0A.7.7,0,0,0,13.5,12.3Z"/><path class="cls-1" d="M15,16.8H2.7a.9.9,0,0,1-.9-.9V4.4a.9.9,0,0,1,.9-.9H20.2a.9.9,0,0,1,.9.9V7.5a4.7,4.7,0,0,1,1.6.4v-4a2,2,0,0,0-2-1.9H2.2a2,2,0,0,0-2,1.9V16.4a2,2,0,0,0,2,1.9H16.6A5.7,5.7,0,0,1,15,16.8Z"/><path class="cls-1" d="M14.2,7.6a.7.7,0,0,0-.7-.7H8.4a.7.7,0,0,0-.7.7h0a.7.7,0,0,0,.7.7h5.1a.7.7,0,0,0,.7-.7Z"/><path class="cls-1" d="M6.7,10.3a.8.8,0,0,0-.8-.7H4.6a.8.8,0,0,0-.8.7h0a.8.8,0,0,0,.8.7H5.9a.8.8,0,0,0,.8-.7Z"/><path class="cls-1" d="M14.2,10.3a.7.7,0,0,0-.7-.7H8.4a.7.7,0,0,0-.7.7h0a.7.7,0,0,0,.7.7h5.1a.7.7,0,0,0,.7-.7Z"/><path class="cls-1" d="M18.2,20.3H4.7c-.7,0-1.1.3-1.1.8s.4.9,1.1.9H18.2c.7,0,1.1-.3,1.1-.9S18.9,20.3,18.2,20.3Z"/><path class="cls-1" d="M23.8,13.2h0a.7.7,0,0,0-.7-.7.7.7,0,0,1-.5-.4h0l-.2-.4h0a.4.4,0,0,1,.1-.5l.4-.4v-.2h0l-.8-.8h-.4l-.3.3a.5.5,0,0,1-.6.1h-.4c-.2,0-.3-.2-.3-.4a.8.8,0,0,0-.5-.7h-.4a.8.8,0,0,0-.7.8c0,.2-.1.4-.3.4h-.7l-.3-.2h-.1l-.3-.3h-.3l-.3.2-.5.6h-.1v.2l.4.4c.1.1.1.2.1.4h-.1c0,.2-.1.3-.1.4h0a.7.7,0,0,1-.5.4.7.7,0,0,0-.7.7h0v.3a.8.8,0,0,0,.7.5.5.5,0,0,1,.5.3h0c0,.2.1.3.1.4h.1v.4c0,.1-.1.1-.1.2l-.4.3V16l.8.8h.4l.3-.4h1a.5.5,0,0,1,.3.5.7.7,0,0,0,.7.7h.2a.7.7,0,0,0,.7-.7.5.5,0,0,1,.3-.5h1l.3.4h.4l.8-.8v-.4l-.4-.3c-.1-.1-.1-.4-.1-.6h0a.5.5,0,0,0,.2-.4h0a.5.5,0,0,1,.5-.3.7.7,0,0,0,.7-.8Zm-3.5,1.9-.8.2h-.3a1.7,1.7,0,0,1-1.4-.7,2.4,2.4,0,0,1-.6-1.1v-.2a2.4,2.4,0,0,1,.5-1.4l.4-.3a1.6,1.6,0,0,1,1.2-.4h.2l.8.2a2.2,2.2,0,0,1,1.1,1.8A2.4,2.4,0,0,1,20.3,15.1Z"/><path class="cls-1" d="M5.9,12.3H4.6a.8.8,0,0,0-.8.7h0a.9.9,0,0,0,.8.8H5.9a.9.9,0,0,0,.8-.8h0A.8.8,0,0,0,5.9,12.3Z"/><path class="cls-1" d="M6.7,7.6a.8.8,0,0,0-.8-.7H4.6a.8.8,0,0,0-.8.7h0a.8.8,0,0,0,.8.7H5.9a.8.8,0,0,0,.8-.7Z"/></svg>