<svg id="图层_1" data-name="图层 1" xmlns="http://www.w3.org/2000/svg" viewBox="0 0 24 24"><defs></defs><title>pttables</title><path class="cls-1" d="M7.3,3.8V6.4a1.1,1.1,0,0,1-.4.9.9.9,0,0,1-.8.4H2.2a1.1,1.1,0,0,1-.9-.4A1.4,1.4,0,0,1,1,6.4V3.8A1.2,1.2,0,0,1,2.2,2.5H6.1a.9.9,0,0,1,.8.4A1,1,0,0,1,7.3,3.8Zm0,6.9v2.6a1,1,0,0,1-.4.9.9.9,0,0,1-.8.4H2.2a1.1,1.1,0,0,1-.9-.4,1.2,1.2,0,0,1-.3-.9V10.7A1.2,1.2,0,0,1,2.2,9.4H6.1a.9.9,0,0,1,.8.4A1,1,0,0,1,7.3,10.7Zm0,6.9v2.6a1,1,0,0,1-.4.9.9.9,0,0,1-.8.4H2.2a1.1,1.1,0,0,1-.9-.4,1.2,1.2,0,0,1-.3-.9V17.6a1.4,1.4,0,0,1,.3-.9,1.2,1.2,0,0,1,.9-.4H6.1a.9.9,0,0,1,.8.4A1.1,1.1,0,0,1,7.3,17.6ZM15.1,3.8V6.4a1.4,1.4,0,0,1-.3.9.9.9,0,0,1-.8.4H10a.9.9,0,0,1-.8-.4,1.6,1.6,0,0,1-.3-.9V3.8a1.2,1.2,0,0,1,.3-.9.9.9,0,0,1,.8-.4h4a.9.9,0,0,1,.8.4A1.2,1.2,0,0,1,15.1,3.8Zm0,6.9v2.6a1.2,1.2,0,0,1-.3.9.9.9,0,0,1-.8.4H10a.9.9,0,0,1-.8-.4,1.2,1.2,0,0,1-.3-.9V10.7a1.2,1.2,0,0,1,.3-.9.9.9,0,0,1,.8-.4h4a.9.9,0,0,1,.8.4A1.2,1.2,0,0,1,15.1,10.7Zm0,6.9v2.6a1.2,1.2,0,0,1-.3.9.9.9,0,0,1-.8.4H10a.9.9,0,0,1-.8-.4,1.2,1.2,0,0,1-.3-.9V17.6a1.4,1.4,0,0,1,.3-.9.9.9,0,0,1,.8-.4h4a.9.9,0,0,1,.8.4A1.4,1.4,0,0,1,15.1,17.6ZM23,3.8V6.4a1.4,1.4,0,0,1-.3.9,1.2,1.2,0,0,1-.9.4H17.9a.9.9,0,0,1-.8-.4,1.2,1.2,0,0,1-.4-.9V3.8a1,1,0,0,1,.4-.9.9.9,0,0,1,.8-.4h3.9a1.1,1.1,0,0,1,.9.4A1.2,1.2,0,0,1,23,3.8Zm0,6.9v2.6a1.2,1.2,0,0,1-1.2,1.3H17.9a.9.9,0,0,1-.8-.4,1,1,0,0,1-.4-.9V10.7a1,1,0,0,1,.4-.9.9.9,0,0,1,.8-.4h3.9a1.1,1.1,0,0,1,.9.4A1.2,1.2,0,0,1,23,10.7Zm0,6.9v2.6a1.2,1.2,0,0,1-1.2,1.3H17.9a.9.9,0,0,1-.8-.4,1,1,0,0,1-.4-.9V17.6a1.1,1.1,0,0,1,.4-.9.9.9,0,0,1,.8-.4h3.9a1.1,1.1,0,0,1,.9.4A1.4,1.4,0,0,1,23,17.6Z"/></svg>