<svg id="图层_1" data-name="图层 1" xmlns="http://www.w3.org/2000/svg" viewBox="0 0 24 24"><defs><style>.cls-1{fill:#666;}.cls-2{fill:#c90;}</style></defs><title>qingxlc</title><path class="cls-1" d="M13.1,2H10.8A2.8,2.8,0,0,0,8,4.8a2.7,2.7,0,0,0,2.8,2.8h2.3a2.7,2.7,0,0,0,2.8-2.8A2.8,2.8,0,0,0,13.1,2Zm0,3.8H10.8a.9.9,0,0,1-1-1,1.1,1.1,0,0,1,1-1h2.3a1.1,1.1,0,0,1,1,1.1A.9.9,0,0,1,13.1,5.8Z"/><path class="cls-1" d="M13.1,9.2H10.8A2.7,2.7,0,0,0,8,12a2.8,2.8,0,0,0,2.8,2.8h2.3A2.8,2.8,0,0,0,15.9,12,2.7,2.7,0,0,0,13.1,9.2Zm0,3.8H10.8a1,1,0,0,1-1-1,.9.9,0,0,1,1-1h2.3a.9.9,0,0,1,1,1A1,1,0,0,1,13.1,13Z"/><path class="cls-1" d="M13.1,16.4H10.8A2.7,2.7,0,0,0,8,19.2,2.8,2.8,0,0,0,10.8,22h2.3a2.8,2.8,0,0,0,2.8-2.8A2.7,2.7,0,0,0,13.1,16.4Zm0,3.8H10.8a1,1,0,0,1-1-1,.9.9,0,0,1,1-1h2.3a.9.9,0,0,1,1,1A1,1,0,0,1,13.1,20.2Z"/><path class="cls-2" d="M7.2,12.2a.9.9,0,0,1-.9.9H3.7a1.9,1.9,0,0,0-2.2,1.6,2.1,2.1,0,0,0,1.6,2.2h.3v-.5l.2-.3h.3l1.3,1.3a.3.3,0,0,1,0,.4L3.9,19.2c0,.1-.2.1-.3.1s-.2-.2-.2-.3v-.3A3.7,3.7,0,0,1,0,15a3.8,3.8,0,0,1,3.7-3.7H6.3a.9.9,0,0,1,.9.9Z"/><path class="cls-2" d="M20.5,12.7V13a.3.3,0,0,1-.3.3H20l-1.2-1.3a.3.3,0,0,1,0-.4L20,10.2h.3c.2,0,.2.1.2.2v.5A1.9,1.9,0,0,0,22.2,9a2,2,0,0,0-1.9-1.9H17.6a.9.9,0,1,1,0-1.8h2.7A3.8,3.8,0,0,1,24,9,3.7,3.7,0,0,1,20.5,12.7Z"/></svg>