<svg id="图层_1" data-name="图层 1" xmlns="http://www.w3.org/2000/svg" viewBox="0 0 24 24"><defs></defs><title>qiyesjzx</title><path class="cls-1" d="M17.6,15.3h-.1a.9.9,0,0,0-.6.7v2a.7.7,0,0,0,1.4,0V16A.7.7,0,0,0,17.6,15.3Z"/><path class="cls-1" d="M22.5,21.3h-.9V8.3a1.7,1.7,0,0,0-1.7-1.7H15.3V3.1a1.8,1.8,0,0,0-1.8-1.7H4A1.7,1.7,0,0,0,2.3,3.1V21.3H1.4a.6.6,0,0,0-.5.7.8.8,0,0,0,.2.5H22.5a.7.7,0,0,0,.6-.7h0A.6.6,0,0,0,22.5,21.3Zm-2.2,0h-5V7.9h4.5a.5.5,0,0,1,.5.4ZM13.9,3.1V21.3H3.6V3.1A.4.4,0,0,1,4,2.7h9.5A.4.4,0,0,1,13.9,3.1Z"/><path class="cls-1" d="M12.2,15.3H9.6a.5.5,0,0,0-.3.5.7.7,0,0,0,.6.7H12c.4.1.7-.2.8-.6A.7.7,0,0,0,12.2,15.3Z"/><path class="cls-1" d="M17.6,13.1a.7.7,0,0,0,.6-.7v-2a.6.6,0,0,0-.6-.6.7.7,0,0,0-.7.6v2A.7.7,0,0,0,17.6,13.1Z"/><path class="cls-1" d="M9.9,6.8H12a.7.7,0,0,0,.7-.7c0-.4-.3-.6-.7-.7H10.1a.4.4,0,0,0-.5.1c-.2.1-.3.2-.3.4a.7.7,0,0,0,.1.5Z"/><path class="cls-1" d="M7.7,10.4H5l-.2.4a.7.7,0,0,0,.1.5.5.5,0,0,0,.4.3H8.1a.8.8,0,0,0,.2-.5A.6.6,0,0,0,7.7,10.4Z"/><path class="cls-1" d="M7.7,15.3H5a.8.8,0,0,0-.2.5,1.1,1.1,0,0,0,.1.5l.4.2H7.6a.6.6,0,0,0,.7-.6C8.4,15.7,8.1,15.4,7.7,15.3Z"/><path class="cls-1" d="M5.4,6.8H7.6a.7.7,0,0,0,.6-.7h0a.7.7,0,0,0-.6-.7H5.3a.5.5,0,0,0-.5.7.5.5,0,0,0,.2.4Z"/><path class="cls-1" d="M9.9,11.7H12a.7.7,0,0,0,.7-.7.7.7,0,0,0-.7-.6H10.1a.7.7,0,0,0-.8.5A.8.8,0,0,0,9.9,11.7Z"/></svg>