<svg id="图层_1" data-name="图层 1" xmlns="http://www.w3.org/2000/svg" viewBox="0 0 24 24"><defs><style>.cls-1{fill:#666;}</style></defs><title>qlczsgl</title><path class="cls-1" d="M16.1,17.7H3.9a2.3,2.3,0,0,1-2.2-2.4A2.2,2.2,0,0,1,3.9,13H9.4v1.8h5.2V9.2H9.4V11h-6A4.1,4.1,0,0,0,0,15.3a4.2,4.2,0,0,0,3.4,4.3H16.1v1.9l2.8-2.8-2.8-2.9Z"/><polygon class="cls-1" points="18.9 15.8 18.9 18.6 18.9 21.5 24 21.5 24 15.8 18.9 15.8"/><path class="cls-1" d="M16.3,13.8l1,1V13h1.1a4.2,4.2,0,0,0,3.9-4.3,4.2,4.2,0,0,0-3.4-4.3H5.1V2.5H0V8.2H5.1V6.3H18.4a2.3,2.3,0,0,1,2.2,2.4A2.2,2.2,0,0,1,18.4,11H17.3V9.2l-1,1-.8.8-.2.2-.7.8.9,1Z"/></svg>