<svg id="图层_1" data-name="图层 1" xmlns="http://www.w3.org/2000/svg" viewBox="0 0 24 24"><defs></defs><title>quxiaold</title><polygon class="cls-1" points="4 7.6 2.1 5.8 2.1 15.4 3.8 15.4 4 15.4 5.6 15.4 5.6 13.5 4 13.5 4 7.6"/><polygon class="cls-1" points="2 0.6 1.9 0.5 0.5 1.9 22 23.4 22.1 23.5 23.5 22.1 2 0.6"/><polygon class="cls-1" points="20 16.4 21.8 18.2 21.8 8.7 18.4 8.7 18.4 10.5 20 10.5 20 16.4"/><polygon class="cls-1" points="8.8 20 8.8 12.5 7 10.7 7 21.8 8.6 21.8 8.8 21.8 18.2 21.8 16.3 20 8.8 20"/><polygon class="cls-1" points="7.6 4 15.1 4 15.1 11.5 16.9 13.3 16.9 2.2 5.8 2.2 7.6 4 7.6 4"/></svg>