<svg id="图层_1" data-name="图层 1" xmlns="http://www.w3.org/2000/svg" viewBox="0 0 24 24"><defs><style>.cls-1{opacity:0.8;}.cls-2{fill:#3c90ca;}.cls-3{fill:#c90;}</style></defs><title>rilifanw</title><g class="cls-1"><path class="cls-2" d="M12.9,21.5H3a.5.5,0,0,1-.5-.5V11.2a.5.5,0,0,1,.5-.5H21a.5.5,0,0,1,.5.5v1.7A5.7,5.7,0,0,1,23,14.1V4.3a.6.6,0,0,0-.6-.5H18a.6.6,0,0,1-.5-.6V1.6a.6.6,0,0,0-.6-.6h-.4a.6.6,0,0,0-.5.6V3.2a.6.6,0,0,1-.5.6h-7A.6.6,0,0,1,8,3.2V1.6A.6.6,0,0,0,7.4,1H7a.6.6,0,0,0-.5.6V3.2a.6.6,0,0,1-.5.6H1.5a.5.5,0,0,0-.5.5V22.4a.6.6,0,0,0,.5.6H14.1A7.9,7.9,0,0,1,12.9,21.5ZM2.5,5.7A.5.5,0,0,1,3,5.2H6a.5.5,0,0,1,.5.5V7.5a.6.6,0,0,0,.5.6h.4A.6.6,0,0,0,8,7.5V5.7a.5.5,0,0,1,.5-.5h7a.5.5,0,0,1,.5.5V7.5a.6.6,0,0,0,.5.6h.4a.6.6,0,0,0,.6-.6V5.7a.5.5,0,0,1,.5-.5h3a.5.5,0,0,1,.5.5v3a.6.6,0,0,1-.5.6H3a.6.6,0,0,1-.5-.6Z"/><path class="cls-3" d="M22.6,19a1.3,1.3,0,0,0-1.2,1.2,1.2,1.2,0,0,0,1.2,1.2,1.2,1.2,0,0,0,1.2-1.2h0A1.2,1.2,0,0,0,22.6,19Zm-3.7-3.6a1.2,1.2,0,0,0,1.2-1.2A1.2,1.2,0,0,0,18.9,13a1.4,1.4,0,0,0-1.2,1.2h0A1.2,1.2,0,0,0,18.9,15.4Zm3.9,2.9.8.3h0a4.7,4.7,0,0,0-2.8-4.2,1.9,1.9,0,0,1-.2.7A3.7,3.7,0,0,1,22.8,18.3Zm-6.4,1.9A1.2,1.2,0,0,0,15.2,19a1.2,1.2,0,0,0,0,2.4,1.2,1.2,0,0,0,1.2-1.2ZM15,18.3A3.9,3.9,0,0,1,17.2,15a1.9,1.9,0,0,1-.2-.7,4.6,4.6,0,0,0-2.7,4.2h0C14.5,18.4,14.8,18.4,15,18.3Zm3.9,4.2a3.6,3.6,0,0,1-2.4-.9l-.7.4A4.6,4.6,0,0,0,22,22l-.7-.4a3.4,3.4,0,0,1-2.4.9Z"/><ellipse class="cls-2" cx="4.9" cy="13.8" rx="0.7" ry="0.6"/><path class="cls-2" d="M7.4,13.2h4.9a.6.6,0,1,1,0,1.2H7.4c-.4,0-.8-.3-.8-.6S7,13.2,7.4,13.2Z"/><ellipse class="cls-2" cx="4.9" cy="16.3" rx="0.7" ry="0.6"/><ellipse class="cls-2" cx="4.9" cy="18.7" rx="0.7" ry="0.6"/><path class="cls-2" d="M7.4,15.7h4.9c.4,0,.7.2.7.6a.7.7,0,0,1-.7.6H7.4c-.4,0-.8-.3-.8-.6S7,15.7,7.4,15.7Z"/><path class="cls-2" d="M7.4,18.1H8.9c.3,0,.7.3.7.6a.7.7,0,0,1-.7.6H7.4c-.4,0-.8-.2-.8-.6S7,18.1,7.4,18.1Z"/></g></svg>