<svg id="图层_1" data-name="图层 1" xmlns="http://www.w3.org/2000/svg" viewBox="0 0 24 24"><defs><style>.cls-1{opacity:0.8;}.cls-2{fill:#c90;}.cls-3{fill:#099;opacity:0.9;}</style></defs><title>rilixx</title><g class="cls-1"><path class="cls-2" d="M7.9,14.2a.5.5,0,0,1-.5.5H5.7a.5.5,0,0,1-.5-.5V12.5a.5.5,0,0,1,.5-.5H7.4a.5.5,0,0,1,.5.5Zm0,5.5a.5.5,0,0,1-.5.5H5.7a.5.5,0,0,1-.5-.5V18a.5.5,0,0,1,.5-.5H7.4a.5.5,0,0,1,.5.5Zm5.5-5.5a.6.6,0,0,1-.6.5H11.2a.6.6,0,0,1-.6-.5V12.5a.6.6,0,0,1,.6-.5h1.6a.6.6,0,0,1,.6.5Zm0,5.5a.6.6,0,0,1-.6.5H11.2a.6.6,0,0,1-.6-.5V18a.6.6,0,0,1,.6-.5h1.6a.6.6,0,0,1,.6.5Zm5.5-5.5a.6.6,0,0,1-.6.5H16.6a.5.5,0,0,1-.5-.5V12.5a.5.5,0,0,1,.5-.5h1.7a.6.6,0,0,1,.6.5Zm0,5.5a.6.6,0,0,1-.6.5H16.6a.5.5,0,0,1-.5-.5V18a.5.5,0,0,1,.5-.5h1.7a.6.6,0,0,1,.6.5Z"/><path class="cls-3" d="M18,3.8a.6.6,0,0,1-.5-.6V1.6a.6.6,0,0,0-.6-.6h-.4a.6.6,0,0,0-.5.6V3.2a.6.6,0,0,1-.5.6h-7A.6.6,0,0,1,8,3.2V1.6A.6.6,0,0,0,7.5,1H7.1a.6.6,0,0,0-.6.6V3.2a.6.6,0,0,1-.5.6H1.6a.6.6,0,0,0-.6.5V22.4a.6.6,0,0,0,.6.6H22.4a.6.6,0,0,0,.6-.6V4.3a.6.6,0,0,0-.6-.5ZM6,5.2a.6.6,0,0,1,.5.6V7.5a.6.6,0,0,0,.6.6h.4A.6.6,0,0,0,8,7.5V5.8a.6.6,0,0,1,.5-.6h7a.6.6,0,0,1,.5.6V7.5a.6.6,0,0,0,.5.6h.4a.6.6,0,0,0,.6-.6V5.8a.6.6,0,0,1,.5-.6h3a.6.6,0,0,1,.5.6V8.7a.6.6,0,0,1-.5.6H3a.6.6,0,0,1-.5-.6V5.8A.6.6,0,0,1,3,5.2ZM3,21.5a.5.5,0,0,1-.5-.5V11.3a.6.6,0,0,1,.5-.6H21a.6.6,0,0,1,.5.6V21a.5.5,0,0,1-.5.5Z"/></g></svg>