<svg id="图层_1" data-name="图层 1" xmlns="http://www.w3.org/2000/svg" viewBox="0 0 24 24"><defs></defs><title>riqixing</title><path class="cls-1" d="M14.3,13.5H9.8V12l.2-.2h4.9a.8.8,0,0,0,.8-.9.8.8,0,0,0-.8-.8H10A1.9,1.9,0,0,0,8.1,12v1.5a1.8,1.8,0,0,0,1.7,1.7h4.5v1.6H9.2a.9.9,0,0,0-.8.9.9.9,0,0,0,.8.8h5.1A1.7,1.7,0,0,0,16,16.9V15.1A1.7,1.7,0,0,0,14.3,13.5Z"/><path class="cls-1" d="M20.4,4.1H17.6V2.3a.9.9,0,0,0-.9-.8.9.9,0,0,0-.8.8V4.1H8.2V2.3a.9.9,0,0,0-.9-.8.9.9,0,0,0-.8.8V4.1H3.6a2,2,0,0,0-2.1,2V20.4a2.1,2.1,0,0,0,2.1,2.1H20.4a2.1,2.1,0,0,0,2.1-2.1V6.1A2,2,0,0,0,20.4,4.1Zm.4,16.3a.4.4,0,0,1-.4.4H3.6a.4.4,0,0,1-.4-.4V6.1c0-.2.2-.3.4-.3H6.5V7.5a.8.8,0,0,0,.8.8.8.8,0,0,0,.9-.8V5.8h7.7V7.5a.8.8,0,0,0,.8.8.8.8,0,0,0,.9-.8V5.8h2.8c.2,0,.4.1.4.3Z"/></svg>