<svg id="图层_1" data-name="图层 1" xmlns="http://www.w3.org/2000/svg" viewBox="0 0 24 24"><defs><style>.cls-1{fill:#8ec2e3;}.cls-2{fill:#26a69a;opacity:0.9;}.cls-3,.cls-4{fill:#4352d4;}.cls-3{opacity:0.2;isolation:isolate;}.cls-5{fill:#f89275;}.cls-6{fill:#c90;}</style></defs><title>sandiant</title><path class="cls-1" d="M0,18.6a2.9,2.9,0,0,0,3,3,2.9,2.9,0,0,0,3-3H6a2.9,2.9,0,0,0-3-3,2.9,2.9,0,0,0-3,3Z"/><path class="cls-2" d="M9,13.8a3,3,0,1,0,3-3,2.9,2.9,0,0,0-3,3Z"/><path class="cls-3" d="M18,18.6a3,3,0,0,0,6,0h0a3,3,0,1,0-6,0Z"/><path class="cls-4" d="M20.4,7.8A1.8,1.8,0,1,0,22.2,6,1.8,1.8,0,0,0,20.4,7.8Z"/><path class="cls-5" d="M9,3.6a1.2,1.2,0,0,0,2.4,0A1.2,1.2,0,0,0,9,3.6Z"/><path class="cls-6" d="M3.6,9.6a1.2,1.2,0,0,0,1.2,1.2A1.2,1.2,0,0,0,6,9.6H6A1.2,1.2,0,0,0,4.8,8.4,1.2,1.2,0,0,0,3.6,9.6Z"/></svg>