<svg xmlns="http://www.w3.org/2000/svg" viewBox="0 0 24 24"><defs></defs><title>scbmbm</title><path class="a" d="M3.8,3.7H18.5v6.6h2.1V2.6a1.1,1.1,0,0,0-1.1-1.1H2.7a1,1,0,0,0-1,1.1V21.4h0a1,1,0,0,0,1,1.1H11V20.3H3.8Z"/><path class="a" d="M14,14l2.6-2.8a1.1,1.1,0,0,0,0-1.5L14,6.9,12.5,8.5l1.9,2-1.9,1.9Z"/><path class="a" d="M8.3,6.9h0L5.7,9.7a.9.9,0,0,0,0,1.5L8.3,14l1.5-1.6L7.9,10.5l1.9-2Z"/><path class="a" d="M22.2,14.4l-1.1-.8a.2.2,0,0,0-.4.1.4.4,0,0,0-.1.3h-.1l-2,2.7a.6.6,0,0,1,0,.6l.3.2-.2.2c0-.1-.1-.1-.2-.2A10.4,10.4,0,0,0,16.8,16c-.7-.7-.2-1.6.7-1.9l.6-.2h.2a.1.1,0,1,0,0-.3H18A4.2,4.2,0,0,0,14.6,15l-.3.2c-.2.8-.7,1.1-1,1.1a.2.2,0,0,0-.4.1h0l-.3.3a.3.3,0,0,0,0,.4l1.2,1.2h.4l.3-.2h0c.1-.1.2-.3.1-.4h0c0-.1,0-.1.1-.1h.2a1.2,1.2,0,0,1,1.2.3,20.3,20.3,0,0,0,1.6,1.6l-1.2,1.7h0l-.5.5-.5.8.5.4.7-.7.3-.7h-.1l1.2-1.6c1.2,1.3,2.7,2.7,2.7,2.7L22,21.1l-2.6-2.5-.4-.4.2-.3.3.2.5-.2,2-2.7h0v-.2h.3C22.4,14.7,22.3,14.5,22.2,14.4Zm-2.9,2.4h-.2l1.5-2.1.2.2Zm.7.5-.2-.2,1.4-2h.2Z"/></svg>