<svg xmlns="http://www.w3.org/2000/svg" viewBox="0 0 24 24"><defs></defs><title>sequk</title><path class="a" d="M23,10h0a13,13,0,0,0-4.3-6.5A10.7,10.7,0,0,0,4.4,4,10.9,10.9,0,0,0,2.8,18.4c.1.2,2.7,3.9,6.5,4.5H11c2,0,3.3-.7,4-2.2a3.6,3.6,0,0,0-.2-2.2,1.7,1.7,0,0,1,.3-1.3,1.5,1.5,0,0,1,1.3-.5c.5.1,3.6.7,5.5-1.1S23.5,12.6,23,10Zm-2.1,4.7c-1.4,1.4-4.2.8-4.2.8h-.1A2.9,2.9,0,0,0,13.5,19a2.3,2.3,0,0,1,.2,1.2c-.5,1.2-1.8,1.7-4,1.3H9.5c-3.2-.5-5.6-3.8-5.6-3.8A9.7,9.7,0,0,1,5.3,4.9a9.5,9.5,0,0,1,12.6-.3,12.8,12.8,0,0,1,3.8,5.7C22.1,12.3,21.8,13.8,20.9,14.7Z"/><path class="a" d="M5.6,11.1a1.3,1.3,0,0,0-1.3,1.3,1.3,1.3,0,0,0,1.3,1.4A1.4,1.4,0,0,0,7,12.4,1.3,1.3,0,0,0,5.6,11.1Z"/><path class="a" d="M7.2,7A1.4,1.4,0,0,0,5.8,8.4,1.3,1.3,0,0,0,7.2,9.7,1.3,1.3,0,0,0,8.5,8.4,1.3,1.3,0,0,0,7.2,7Z"/><path class="a" d="M11.2,4.8A1.3,1.3,0,0,0,9.9,6.1a1.3,1.3,0,0,0,1.3,1.4,1.4,1.4,0,0,0,1.4-1.4A1.3,1.3,0,0,0,11.2,4.8Z"/><path class="a" d="M17.1,7.2a1.3,1.3,0,0,0-1.4-1.3,1.3,1.3,0,0,0-1.3,1.3,1.3,1.3,0,0,0,1.3,1.4A1.4,1.4,0,0,0,17.1,7.2Z"/><path class="a" d="M18,9.5a1.3,1.3,0,0,0-1.4,1.3A1.4,1.4,0,0,0,18,12.2a1.3,1.3,0,0,0,1.3-1.4A1.3,1.3,0,0,0,18,9.5Z"/></svg>