<svg id="图层_1" data-name="图层 1" xmlns="http://www.w3.org/2000/svg" viewBox="0 0 24 24"><defs></defs><title>shauixuan</title><path class="cls-1" d="M20,2.1l-.5-.2H2l-.5.2a.5.5,0,0,0-.3.5.7.7,0,0,0,.2.6L7,10v6.9a1.4,1.4,0,0,0,.2.6l2.4,2.2a.8.8,0,0,0,1.1,0,.8.8,0,0,0,.2-.5,1.4,1.4,0,0,0-.2-.6l-2.1-2V9.8a.8.8,0,0,0-.2-.5L3.7,3.5h14L12.5,9.3a.8.8,0,0,0-.2.5V21.3a.9.9,0,0,0,.8.8.7.7,0,0,0,.8-.8V10l6.2-6.8A.8.8,0,0,0,20,2.1Z"/><path class="cls-1" d="M15.8,11.1a.7.7,0,0,0,.7.8H22a.9.9,0,0,0,.8-.8.9.9,0,0,0-.8-.8H16.5A.8.8,0,0,0,15.8,11.1Z"/><path class="cls-1" d="M22,14.5H16.5a.8.8,0,0,0,0,1.6H22a.8.8,0,0,0,0-1.6Z"/><path class="cls-1" d="M22,18.7H16.5a.8.8,0,0,0-.5,1.4l.4.2H22a.8.8,0,0,0,.8-.8A.9.9,0,0,0,22,18.7Z"/></svg>