<svg id="图层_1" data-name="图层 1" xmlns="http://www.w3.org/2000/svg" viewBox="0 0 24 24"><defs><style>.cls-1{fill:#c90;}.cls-2{fill:#666;}</style></defs><title>shujusc</title><polygon class="cls-1" points="20.1 1.3 16.4 5 17.6 6.2 19.2 4.5 19.2 9.6 20.9 9.6 20.9 4.5 22.6 6.2 23.8 5 20.1 1.3"/><path class="cls-2" d="M8,4.7C4.3,4.7.2,5.8.2,8.3V19c0,2.5,4.1,3.7,7.8,3.7s7.8-1.2,7.8-3.7V8.3C15.8,5.8,11.8,4.7,8,4.7ZM14.7,19c0,1.4-3,2.6-6.7,2.6S1.4,20.4,1.4,19V16.9c1.1,1.2,3.9,1.8,6.6,1.8s5.6-.6,6.7-1.8Zm0-3.4h0c0,1.4-3,2.5-6.7,2.5s-6.6-1.1-6.6-2.5h0V13.5c1.1,1.2,3.9,1.9,6.6,1.9s5.6-.7,6.7-1.9Zm0-3.3h0c0,1.4-3,2.5-6.7,2.5s-6.6-1.1-6.6-2.5h0v-2C2.8,11.5,5.5,12,8,12s5.3-.5,6.7-1.7ZM8,10.9c-3.6,0-6.6-1.2-6.6-2.6S4.4,5.8,8,5.8s6.7,1.1,6.7,2.5S11.7,10.9,8,10.9Z"/><path class="cls-2" d="M12.5,19.3a.6.6,0,0,0,.6.6.6.6,0,0,0,0-1.2A.6.6,0,0,0,12.5,19.3Z"/><path class="cls-2" d="M12.5,15.9a.6.6,0,0,0,.6.6.6.6,0,0,0,.5-.6.5.5,0,0,0-.5-.5A.6.6,0,0,0,12.5,15.9Z"/><path class="cls-2" d="M12.5,12.6a.6.6,0,0,0,.6.5.5.5,0,0,0,.5-.5c0-.4-.2-.6-.5-.6A.6.6,0,0,0,12.5,12.6Z"/></svg>