<svg id="图层_1" data-name="图层 1" xmlns="http://www.w3.org/2000/svg" viewBox="0 0 24 24"><defs></defs><title>shujufenxi</title><path class="cls-1" d="M5.6,16.5a1.6,1.6,0,0,0,1.5-.8A1.5,1.5,0,0,0,7,14a.2.2,0,0,1,0-.3l1.1-1.9c0-.1.1-.1.2-.1H9.5l3.6,2.7c.1.1.1.1,0,.3a2.1,2.1,0,0,0,.2,2.3,2.1,2.1,0,0,0,2.2.6,1.9,1.9,0,0,0,1.3-1.7,2.1,2.1,0,0,0-.7-1.8c-.1-.1-.2-.1-.1-.2l2.5-4.5h.2a1.4,1.4,0,0,0,.9,0,2.2,2.2,0,0,0,1.9-2.4,2.3,2.3,0,0,0-2.3-2.2A2.2,2.2,0,0,0,17,6.2a2.4,2.4,0,0,0,.8,2.6c.1.1.1.1,0,.3l-2.5,4.4H15a2.2,2.2,0,0,0-1.1.2h-.2L10,11.1c-.1-.1-.1-.1,0-.3a1.5,1.5,0,0,0,.1-1.3A1.8,1.8,0,0,0,8.6,8.2,1.8,1.8,0,0,0,6.9,9.3a1.5,1.5,0,0,0,.4,1.9c.1.2.1.2,0,.3l-1,1.8-.2.2a1.5,1.5,0,0,0-1.8,1.9A1.6,1.6,0,0,0,5.6,16.5Z"/><path class="cls-1" d="M23,20H2V3A1.1,1.1,0,0,0,1,2,1.1,1.1,0,0,0,0,3V21a1.1,1.1,0,0,0,1,1H23a1,1,0,0,0,0-2Z"/></svg>