<svg id="图层_1" data-name="图层 1" xmlns="http://www.w3.org/2000/svg" viewBox="0 0 24 24"><defs></defs><title>shujuqx</title><path class="cls-1" d="M14.1,7.8l2-3.5L14.1.8H9.9l-2,3.6,2,3.5ZM10.8,2.2h2.4l1.1,2.1-1.1,2H10.8l-1.1-2Z"/><path class="cls-1" d="M15.7,5.7l.3.5L17,7a7.3,7.3,0,0,1,2.1,5,.8.8,0,0,0,.7.8.8.8,0,0,0,.6-.2.7.7,0,0,0,.2-.6,8.6,8.6,0,0,0-2.5-6.1L17,5a.7.7,0,0,0-.6-.2,1,1,0,0,0-.5.4C15.7,5.3,15.7,5.5,15.7,5.7Z"/><path class="cls-1" d="M9,18.4H8.4c-.2.1-.3.3-.4.4a1.7,1.7,0,0,0-.1.7l.5.4a8.6,8.6,0,0,0,3.6.8,9.5,9.5,0,0,0,3.7-.8.9.9,0,0,0,.3-1.1.8.8,0,0,0-1-.3A7.8,7.8,0,0,1,9,18.4Z"/><path class="cls-1" d="M18.9,5.1A9.4,9.4,0,0,1,21.8,12a.8.8,0,0,0,1.6,0,10.7,10.7,0,0,0-.9-4.3A10.1,10.1,0,0,0,20,4L18.3,2.6a.7.7,0,0,0-1.1.2.9.9,0,0,0,.2,1.1A4.4,4.4,0,0,1,18.9,5.1Z"/><path class="cls-1" d="M21.5,13.2H17.3l-2.1,3.6,2,3.5h4.2l2.1-3.6Zm-1,5.5H18.2l-1.2-2,1.2-2h2.3l1.2,2Z"/><path class="cls-1" d="M16.1,20.8a9.1,9.1,0,0,1-8.2,0c-.2,0-.4-.1-.6,0a1,1,0,0,0-.5.4.6.6,0,0,0,0,.6,1,1,0,0,0,.4.5,11.2,11.2,0,0,0,4.8,1,11.2,11.2,0,0,0,4.8-1,.8.8,0,0,0,.4-1.1A.9.9,0,0,0,16.1,20.8Z"/><path class="cls-1" d="M3.4,12a.8.8,0,0,0,.8.8l.5-.2a.7.7,0,0,0,.2-.6A7.3,7.3,0,0,1,7,7l1-.8A.8.8,0,0,0,7,5a8.7,8.7,0,0,0-1.1.9A8.6,8.6,0,0,0,3.4,12Z"/><path class="cls-1" d="M1.4,12.8a.9.9,0,0,0,.8-.8A9.4,9.4,0,0,1,5.1,5.1,6.9,6.9,0,0,1,6.4,4a.9.9,0,0,0,.2-1.1.9.9,0,0,0-1.1-.2A6.4,6.4,0,0,0,4,4,10.1,10.1,0,0,0,1.5,7.7,10.7,10.7,0,0,0,.6,12,.9.9,0,0,0,1.4,12.8Z"/><path class="cls-1" d="M6.7,13.1H2.6L.5,16.7l2.1,3.6H6.7l2.1-3.6Zm-.9,5.6H3.5l-1.2-2,1.2-2H5.8l1.2,2Z"/></svg>