<svg id="图层_1" data-name="图层 1" xmlns="http://www.w3.org/2000/svg" viewBox="0 0 24 24"><defs></defs><title>shujqx</title><path class="cls-1" d="M20.7,14.3V12.8a3.3,3.3,0,0,0-6.5.4v1.1a1.8,1.8,0,0,0-1.6,1.8v4.2h0a1.8,1.8,0,0,0,1.9,1.9h5.9a1.9,1.9,0,0,0,1.9-1.8V16.2A1.9,1.9,0,0,0,20.7,14.3Zm-5.1-1.1v-.3a1.8,1.8,0,0,1,2-1.6,1.8,1.8,0,0,1,1.6,1.9v1.1H15.6Zm5.3,7.2a.5.5,0,0,1-.5.4H14.5a.5.5,0,0,1-.5-.4V16.2a.5.5,0,0,1,.5-.5h0a.5.5,0,0,0,.6.1c.1,0,.2,0,.2-.1h5.1a.5.5,0,0,1,.5.5Z"/><path class="cls-1" d="M17.4,16.8a1.1,1.1,0,0,0-1,1,.8.8,0,0,0,.3.7v1.1a.9.9,0,0,0,.8.8.9.9,0,0,0,.6-.8V18.5a.8.8,0,0,0,.3-.7h0A1,1,0,0,0,17.4,16.8Z"/><path class="cls-1" d="M11.5,6.7c.8,0,5.8,0,8.4-1.2V7.9a.7.7,0,0,0,.7.7.8.8,0,0,0,.7-.7V3.6h-.1c-.8-2.4-8.7-2.4-9.7-2.4s-9.8,0-9.8,2.8V14.7h0v5.3c0,2.3,5.8,2.7,8.3,2.8a.7.7,0,0,0,.7-.7h0a.7.7,0,0,0-.7-.7c-4.4-.2-6.6-1-6.9-1.3V16.4a17.3,17.3,0,0,0,5.4,1h0c.3-.1.5-.3.5-.5a.7.7,0,0,0-.5-.9c-3.5-.3-5.1-1-5.4-1.2V10.9a22.4,22.4,0,0,0,6.5,1.2h0a.6.6,0,0,0,.6-.8h0a.7.7,0,0,0-.7-.7c-4.2-.2-6.1-1-6.4-1.3V5.5C5.7,6.7,10.8,6.7,11.5,6.7Zm0-4.1c4.7,0,7.7.8,8.3,1.3s-3.6,1.3-8.3,1.3S3.9,4.4,3.3,3.9,6.9,2.6,11.5,2.6Z"/></svg>