<svg id="图层_1" data-name="图层 1" xmlns="http://www.w3.org/2000/svg" viewBox="0 0 24 24"><defs><style>.cls-1{fill:#e03146;}.cls-2{fill:#888;}</style></defs><title>shujugl</title><path class="cls-1" d="M21.4,15.1a.4.4,0,0,1-.1.3l-2.5,2.8v4.3a.4.4,0,0,1-.1.3h-.4L17,21.3c0-.1-.1-.2-.1-.3V18.2l-2.4-2.8a.4.4,0,0,1-.1-.3l.3-.3h6.4Q21.3,14.8,21.4,15.1Z"/><path class="cls-2" d="M11.3,1.2c-4.8,0-8.7,1.5-8.7,3.3V7.2c0,1.8,3.9,3.3,8.7,3.3S19.9,9,19.9,7.2V4.5C19.9,2.7,16,1.2,11.3,1.2Z"/><path class="cls-2" d="M11.3,12.5c-4.8,0-8.7-1.5-8.7-3.3v4c0,1.8,3.9,3.3,8.7,3.3h1.1a5,5,0,0,1,7.4-2.9.4.4,0,0,0,.1-.3v-4C19.9,11,16,12.5,11.3,12.5Z"/><path class="cls-2" d="M12.2,18.5h-.9c-4.8,0-8.7-1.5-8.7-3.4v4c0,1.9,3.9,3.4,8.7,3.4a19.8,19.8,0,0,0,3.5-.3A5,5,0,0,1,12.2,18.5Z"/></svg>
