<svg id="图层_1" data-name="图层 1" xmlns="http://www.w3.org/2000/svg" viewBox="0 0 24 24"><defs><style>.cls-1{fill:#666;}.cls-2{fill:#c90;}.cls-3{fill:#3c90ca;}</style></defs><title>suijisl</title><path class="cls-1" d="M12,.5A11.4,11.4,0,0,0,.5,12,11.4,11.4,0,0,0,12,23.5,11.4,11.4,0,0,0,23.5,12,11.4,11.4,0,0,0,12,.5Zm0,21.2A9.8,9.8,0,0,1,2.3,12,9.8,9.8,0,0,1,12,2.3,9.8,9.8,0,0,1,21.7,12,9.8,9.8,0,0,1,12,21.7Z"/><path class="cls-2" d="M15.7,9.3c-.7,0-2.5,1.8-3.7,3S8.2,16,6.7,16H5.8a.7.7,0,0,1-.6-.7.6.6,0,0,1,.6-.6h.9c1,0,2.8-1.9,4.3-3.4S14.5,8,15.7,8h.9l-1-.9a.7.7,0,0,1,0-.9.7.7,0,0,1,1,0l2,2a.6.6,0,0,1,.2.5c0,.2,0,.4-.2.5l-2,2c-.1.2-.3.2-.5.2a.6.6,0,0,1-.5-.2.8.8,0,0,1,0-.9l1-1Z"/><path class="cls-2" d="M16.6,12.8a.7.7,0,0,0-1,0,.7.7,0,0,0,0,.9l1,1h-.9c-.6,0-1.5-.8-2.4-1.7a.8.8,0,0,0-.9,0,.7.7,0,0,0,0,1c1.4,1.3,2.3,2,3.3,2h.9l-1,.9a.7.7,0,0,0,0,.9l.5.2.5-.2,2-2a.6.6,0,0,0,.2-.5c0-.2,0-.4-.2-.5Z"/><path class="cls-2" d="M5.8,9.3h.9c.7,0,1.8.9,2.6,1.7l.5.2.5-.2a.8.8,0,0,0-.1-1C8.9,8.8,7.8,8,6.7,8H5.8a.7.7,0,0,0-.6.7A.6.6,0,0,0,5.8,9.3Z"/><circle class="cls-3" cx="9.5" cy="18.5" r="1"/><circle class="cls-3" cx="13.5" cy="18.5" r="1"/><circle class="cls-3" cx="11.5" cy="16" r="1"/><circle class="cls-3" cx="9.5" cy="6.5" r="1"/><circle class="cls-3" cx="13.5" cy="6.5" r="1"/><circle class="cls-3" cx="7" cy="11.5" r="1"/></svg>