<svg id="图层_1" data-name="图层 1" xmlns="http://www.w3.org/2000/svg" viewBox="0 0 24 24"><defs><style>.cls-1{fill:#666;}</style></defs><title>tingzs</title><path class="cls-1" d="M20.6,3.2a3.2,3.2,0,0,1,.5,6.3H20c-.2-.1-.2,0-.3.1l-3.5,6c-.1.2,0,.2.1.3a2.8,2.8,0,0,1,1.1,2.5,2.7,2.7,0,0,1-1.8,2.2,2.6,2.6,0,0,1-3-.8,2.6,2.6,0,0,1-.3-3.1c.1-.2.1-.2,0-.4l-5-3.6c-.1-.1-.2-.2-.4-.1a1.7,1.7,0,0,1-1.2.2c-.2,0-.2,0-.3.2L3.9,15.5c-.1.2-.1.3,0,.4a2,2,0,0,1,.2,2.3,2.1,2.1,0,0,1-2,1.1A2.2,2.2,0,0,1,.3,17.8a2,2,0,0,1,2.3-2.6c.2,0,.3,0,.4-.2s.9-1.6,1.4-2.4.1-.3-.1-.4a2.3,2.3,0,0,1-.5-2.7A2.3,2.3,0,0,1,6.1,8.1,2.4,2.4,0,0,1,8.2,9.8,2.2,2.2,0,0,1,8,11.6c-.1.2-.1.3.1.3l5,3.7c.1.1.2.2.3.1a2.1,2.1,0,0,1,1.5-.3c.2,0,.3-.1.3-.2,1.2-2,2.4-4,3.5-6,.1-.2.1-.2,0-.4a3.1,3.1,0,0,1-1.1-3.5A3.4,3.4,0,0,1,20.6,3.2Z"/></svg>