<svg id="图层_1" data-name="图层 1" xmlns="http://www.w3.org/2000/svg" viewBox="0 0 24 24"><defs><style>.cls-1{fill:#666;}.cls-2{fill:#c90;}.cls-3{fill:#707070;}</style></defs><title>wenjiansc</title><path class="cls-1" d="M11.3,10.8H9.6L9.1,9.5H6.5L6,10.8H4.3L6.9,4.7H8.7ZM8.8,8.4,8,6.3c-.1-.2-.1-.4-.2-.6h0a1.1,1.1,0,0,1-.2.6L6.8,8.4Z"/><polygon class="cls-2" points="18.9 13.8 17.6 15.1 19.4 16.9 13.9 16.9 13.9 18.7 19.4 18.7 17.6 20.5 18.9 21.8 22.9 17.8 18.9 13.8"/><path class="cls-3" d="M14.1,1H1.3V23H11.9V21H3.2V2.9h9.5v7.9h8V12h1.9V9.4Zm-.4,8.9V3.2l6.7,6.7Z"/><rect class="cls-3" x="4.4" y="13.1" width="7" height="1"/><rect class="cls-3" x="4.4" y="15.6" width="7" height="1"/><rect class="cls-3" x="4.4" y="18.1" width="7" height="1"/></svg>