<svg id="图层_1" data-name="图层 1" xmlns="http://www.w3.org/2000/svg" viewBox="0 0 24 24"><defs></defs><title>wfhzt</title><path class="cls-1" d="M10.6,12c.2-1.5.7-3.6.7-3.8a1.1,1.1,0,0,0-.4-.9h0a1.5,1.5,0,0,0-1.8,0,1.1,1.1,0,0,0-.4.9c0,.2.5,2.3.7,3.8Z"/><path class="cls-1" d="M10.9,14.6a1.1,1.1,0,0,0,0-1.7,1.3,1.3,0,0,0-1.8,0,1.1,1.1,0,0,0,0,1.7A1.3,1.3,0,0,0,10.9,14.6Z"/><path class="cls-1" d="M19.6,8.3a1.2,1.2,0,0,0-1.7.1l-7.3,8.5a.9.9,0,0,0-.3.5h0L10,19.6H9.9a1.3,1.3,0,0,0,1,1.3h.5l2-.7a.5.5,0,0,0,.5-.3l7.5-8.6a1.9,1.9,0,0,0,.2-.8.9.9,0,0,0-.4-.8ZM12.8,18.7l-1.1.4.2-1.2,5.2-6,.9.8Zm6.3-7.2-1-.8.8-.9.9.8Z"/><path class="cls-1" d="M20.2,1.5A2.3,2.3,0,0,0,18.1,3H5.9A2.2,2.2,0,0,0,3.8,1.5,2.3,2.3,0,0,0,1.5,3.8,2.4,2.4,0,0,0,3,5.9V18.1a2.3,2.3,0,0,0-1.5,2.1,2.3,2.3,0,0,0,2.3,2.3A2.2,2.2,0,0,0,5.9,21H7.5V19.5H5.9a2,2,0,0,0-1.4-1.4V5.9A2,2,0,0,0,5.9,4.5H18.1A2.2,2.2,0,0,0,20.2,6a2.3,2.3,0,0,0,2.3-2.2A2.3,2.3,0,0,0,20.2,1.5Z"/><rect class="cls-1" x="16" y="19.5" width="2" height="1.5"/><rect class="cls-1" x="19" y="19.5" width="2" height="1.5"/></svg>