<svg id="图层_1" data-name="图层 1" xmlns="http://www.w3.org/2000/svg" viewBox="0 0 24 24"><defs></defs><title>xiaoshux</title><path class="cls-1" d="M9.7,5.5H6a.7.7,0,0,0-.7.7V17.3A.7.7,0,0,0,6,18H9.7a.7.7,0,0,0,.7-.7V6.2A.7.7,0,0,0,9.7,5.5ZM9,7v9.6H6.8V7Z"/><path class="cls-1" d="M18,11H15V7h3a.8.8,0,0,0,.7-.8.7.7,0,0,0-.7-.7H14.3a.7.7,0,0,0-.7.7v5.6a.7.7,0,0,0,.7.7h2.9v4.1H14.3a.7.7,0,1,0,0,1.4H18a.7.7,0,0,0,.7-.7V11.8A.8.8,0,0,0,18,11Z"/><ellipse class="cls-1" cx="12" cy="17.3" rx="1.2" ry="1.2"/><path class="cls-1" d="M21.1,2H2.9a.9.9,0,0,0-.9.9V21.1a.9.9,0,0,0,.9.9H21.1a.9.9,0,0,0,.9-.9V2.9A.9.9,0,0,0,21.1,2Zm-.8,18.3H3.7V3.7H20.3Z"/></svg>