<svg xmlns="http://www.w3.org/2000/svg" viewBox="0 0 24 24"><defs></defs><title>yclk</title><path class="a" d="M11.4,6.9c-2.8,0-5,.7-5,1.7v.8c0,1,2.2,1.9,5,1.9s5-.9,5-1.9V8.6c0-1-2.3-1.7-5-1.7Z"/><polygon class="a" points="16.4 1 16.4 6.9 22.1 6.9 16.4 1"/><path class="a" d="M16.4,11.4c0-.1-.1-.2-.2,0s-2.5,1.3-4.8,1.3-4.3-.6-4.8-1.3-.2-.1-.2,0v1.5c0,1.1,2.2,2,5,2s5-.9,5-2Z"/><path class="a" d="M16.2,15c-.6.8-2.6,1.4-4.8,1.4S7.2,15.8,6.6,15H6.4v1.2c0,1.2,2.2,2.4,5,2.4s5-1.2,5-2.4V15Z"/><polygon class="a" points="20.7 21.5 3.5 21.5 3.5 2.5 14.9 2.5 14.9 1 2.1 1 2.1 23 22.1 23 22.1 8.3 20.7 8.3 20.7 21.5"/></svg>