<svg xmlns="http://www.w3.org/2000/svg" viewBox="0 0 24 24"><defs></defs><title>yhgl</title><path class="a" d="M17.6,15.6A2.4,2.4,0,0,0,15.2,18,2.4,2.4,0,0,0,20,18,2.4,2.4,0,0,0,17.6,15.6Zm0,3.5A1.1,1.1,0,0,1,16.5,18a1.2,1.2,0,0,1,1.1-1.2A1.3,1.3,0,0,1,18.8,18,1.2,1.2,0,0,1,17.6,19.1Zm6.3-2.3c-.1-.5-.4-.8-.8-.8H23a1.3,1.3,0,0,1-1.3-1.4,4.3,4.3,0,0,1,.1-.5.9.9,0,0,0-.4-1.2l-1.5-.8h-.4a1.1,1.1,0,0,0-.8.3,2.1,2.1,0,0,1-1,.6,2,2,0,0,1-1.1-.6,1.1,1.1,0,0,0-.8-.3h-.4l-1.6.8h0a.8.8,0,0,0-.3,1.1,4.3,4.3,0,0,1,.1.5A1.4,1.4,0,0,1,12.2,16h0c-.4,0-.7.3-.8.8a10.5,10.5,0,0,0-.1,1.2,10.5,10.5,0,0,0,.1,1.2c.1.5.4.8.8.8h0a1.3,1.3,0,0,1,1.4,1.3,2,2,0,0,1-.1.5.9.9,0,0,0,.3,1.2l1.6.9h.4a1.1,1.1,0,0,0,.7-.3c.2-.2.7-.7,1.1-.7s.9.5,1.1.7a1.1,1.1,0,0,0,.8.3h.4l1.5-.9h.1a.8.8,0,0,0,.3-1.1,3.5,3.5,0,0,1-.1-.6A1.3,1.3,0,0,1,23,20h.1c.4,0,.7-.3.8-.8A10.5,10.5,0,0,0,24,18a10.5,10.5,0,0,0-.1-1.2Zm-1.2,2a2.6,2.6,0,0,0-2.2,2.5,1.9,1.9,0,0,0,.1.8l-1.1.6-.5-.4a2.7,2.7,0,0,0-1.4-.5,3,3,0,0,0-1.4.5l-.5.4-1-.6c0-.2.1-.5.1-.8a2.7,2.7,0,0,0-2.2-2.5,1.9,1.9,0,0,1-.1-.8,1.9,1.9,0,0,1,.1-.8,2.7,2.7,0,0,0,2.2-2.6c0-.3-.1-.5-.1-.7l1.1-.7.5.4a2,2,0,0,0,1.4.5,1.8,1.8,0,0,0,1.3-.5l.5-.3,1.1.6a1.5,1.5,0,0,0-.1.7,2.6,2.6,0,0,0,2.2,2.6c0,.2.1.5.1.8s-.1.6-.1.8ZM1.6,22.3V20.9a8.8,8.8,0,0,1,8-8.7h.9a6.4,6.4,0,0,0,3.3-1l.4-.3a6,6,0,0,0,2.3-4.8,6.1,6.1,0,0,0-12.2,0,6,6,0,0,0,2.3,4.8l.4.3H6.6A10.4,10.4,0,0,0,0,20.9v2.2a.8.8,0,0,0,.8.7H12.3a7.5,7.5,0,0,1-.9-1.5ZM5.9,6.1a4.5,4.5,0,0,1,4.5-4.5A4.6,4.6,0,0,1,15,6.1a4.6,4.6,0,0,1-4.6,4.5A4.5,4.5,0,0,1,5.9,6.1Z"/></svg>