<svg xmlns="http://www.w3.org/2000/svg" viewBox="0 0 24 24"><defs></defs><title>zaixjk</title><path class="a" d="M22.3,2.5H1.7a.7.7,0,0,0-.7.7H1V16.4a.8.8,0,0,0,.7.8H4.9a.9.9,0,0,0,.6-.3l4.1-5.1,1.9,1.6a.8.8,0,0,0,1-.1l3.7-3.9a2.5,2.5,0,0,0,3.3-.8,2.8,2.8,0,0,0,.4-1.2,2.4,2.4,0,1,0-4.8,0,1.9,1.9,0,0,0,.2.8l-3.4,3.6L10,10.2a.9.9,0,0,0-1.1.1h0L4.5,15.7h-2V4h19V15.7H11.2a.7.7,0,0,0-.7.7h0V20H6.1a.8.8,0,0,0-.7.8h0a.7.7,0,0,0,.7.7h10a.8.8,0,0,0,.8-.7h0a.9.9,0,0,0-.8-.8H12V17.2H22.3a.8.8,0,0,0,.7-.8h0V3.2a.7.7,0,0,0-.7-.7Zm-4.8,4a.9.9,0,0,1,.9.9,1,1,0,0,1-1,.8.9.9,0,0,1-.8-.8A.9.9,0,0,1,17.5,6.5Z"/></svg>