<svg id="图层_1" data-name="图层 1" xmlns="http://www.w3.org/2000/svg" viewBox="0 0 24 24"><defs></defs><title>zhandianpz</title><path class="cls-1" d="M23.5,17.1V15.8H21.4a4,4,0,0,0-.9-2.1L22,12.2l-.9-1-1.5,1.6a4,4,0,0,0-2.1-.9V9.7H16.2v2.2a4,4,0,0,0-2.1.9l-1.5-1.6-1,1,1.6,1.5a4,4,0,0,0-.9,2.1H10.1v1.3h2.2a4,4,0,0,0,.9,2.1l-1.6,1.5,1,1,1.5-1.6a4,4,0,0,0,2.1.9v2.2h1.3V21a4,4,0,0,0,2.1-.9l1.5,1.6.9-1-1.5-1.5a4,4,0,0,0,.9-2.1Zm-3.7-.2a3.1,3.1,0,0,1-.6,1.3l-.2.4-.4.2a3.1,3.1,0,0,1-1.3.6h-.9a3.1,3.1,0,0,1-1.3-.6l-.4-.2-.2-.4a3.1,3.1,0,0,1-.6-1.3V16a3.1,3.1,0,0,1,.6-1.3l.2-.4.4-.2a3.1,3.1,0,0,1,1.3-.6h.9a3.1,3.1,0,0,1,1.3.6l.4.2.2.4a3.1,3.1,0,0,1,.6,1.3v.9Z"/><path class="cls-1" d="M11.3,10.3h1.6V8.8h5.2V.8H6.1v8h5.2ZM7.7,7.2V2.4h8.8V7.2Z"/><polygon class="cls-1" points="5.9 12 10.3 12 10.3 10.4 5.9 10.4 4.3 10.4 4.3 12 4.3 14.4 0.5 14.4 0.5 15.6 0.5 16 0.5 21.4 0.5 21.6 0.5 23 8.1 23 8.1 21.4 2.1 21.4 2.1 16 8.1 16 8.1 14.4 5.9 14.4 5.9 12"/></svg>