<svg id="图层_1" data-name="图层 1" xmlns="http://www.w3.org/2000/svg" viewBox="0 0 24 24"><defs></defs><title>zhengshux</title><path class="cls-1" d="M2.6,19.7c0-1.2.1-3,.2-5.7s.1-4.4.1-5.5a1,1,0,0,0-.4.5,3.5,3.5,0,0,0-.9,1.2V7.9A14.9,14.9,0,0,0,1.7,6l.7-.8.4-.5.3-.4H5.6V6.8l-.3,8.4v4.5H2.6Z"/><path class="cls-1" d="M7.9,19.7V18.3c0-.6.1-1.2.1-1.8a11.8,11.8,0,0,0,1.1-1.9l1.5-2.7c.3-.7.6-1.3.8-1.9l.3-.8V8.7a1.3,1.3,0,0,0-.1-.6.5.5,0,0,0-.2-.4L11,7.4h-.5l-.9.2A2.8,2.8,0,0,0,8.4,8V6.4c.1-.4.1-1,.2-1.9A10.4,10.4,0,0,1,11.6,4l1.1.2a4.1,4.1,0,0,1,1.1.7,6.7,6.7,0,0,1,.6,1.2,3.9,3.9,0,0,1,.2,1.5v1a7,7,0,0,1-.3,1.2,9.8,9.8,0,0,1-.5,1.6,25.6,25.6,0,0,1-1.1,2.4l-1.5,2.7h3.1v1.3c0,.6-.1,1.2-.1,2H7.9Z"/><path class="cls-1" d="M16,19.4c0-1.5-.1-2.7-.1-3.6a5.2,5.2,0,0,0,2.4.8,1.4,1.4,0,0,0,1-.5,2,2,0,0,0,.4-1.4,1.6,1.6,0,0,0-.4-1.2,2.3,2.3,0,0,0-1.3-.3H17c.1-1.2.1-2.3.2-3.5l.8.2.9-.2a.8.8,0,0,0,.5-.5,1.1,1.1,0,0,0,.2-.8,1.5,1.5,0,0,0-.1-.7.7.7,0,0,0-.5-.4l-.7-.2h-.8l-1.1.4L16.7,5c0-.2.1-.4.1-.7L19.1,4l1.3.2a2,2,0,0,1,1.1.6,3.3,3.3,0,0,1,.7,1.3,8.8,8.8,0,0,1,.2,1.7,3.7,3.7,0,0,1-.1,1.1,3,3,0,0,1-.2,1,2,2,0,0,1-.4.8c-.1.3-.3.4-.4.6l-.6.5.6.3c.1.1.3.2.4.4l.4.7c.1.3.1.6.2.9s.1.7.1,1.1a7.6,7.6,0,0,1-.3,2.1,5.3,5.3,0,0,1-.8,1.5,2.7,2.7,0,0,1-1.2.9,3.1,3.1,0,0,1-1.3.3H17.5Z"/></svg>