<svg id="图层_1" data-name="图层 1" xmlns="http://www.w3.org/2000/svg" viewBox="0 0 24 24"><title>zhuangxing</title><polygon class="cls-1" points="3.36 4.98 3.81 5.41 4.49 4.76 4.05 4.34 4.05 4.33 3.54 3.85 2.82 4.53 3.33 5.01 3.36 4.98"/><polygon class="cls-1" points="23.12 5.8 22.02 5.8 22.02 6.15 21.47 6.15 21.47 6.8 22.5 6.8 22.5 6.49 23.12 6.49 23.12 5.8"/><polygon class="cls-1" points="19.47 6.15 19.06 6.15 19.06 6.8 20.09 6.8 20.09 6.49 20.57 6.49 20.57 5.83 21.12 5.83 21.12 5.46 21.66 5.46 21.66 4.43 20.93 4.43 20.93 4.86 20.43 4.86 20.43 5.8 19.47 5.8 19.47 6.15"/><polygon class="cls-1" points="13.28 12.33 14.01 12.33 14.01 5.12 13.28 5.12 13.28 5.5 13.21 5.5 13.21 12.31 13.28 12.31 13.28 12.33"/><path class="cls-1" d="M16.19,3.75a1.18,1.18,0,0,1,0-.2A1.06,1.06,0,0,1,17,3.24a1,1,0,0,1,1,1h.69a1.7,1.7,0,0,0-.07-.46h.47a1.84,1.84,0,0,0-3.61-.34,1.53,1.53,0,0,0-.23.8V13h.19v0h.73v-.69L17.6,13l-5.12,2.55L7.37,13l1.53-.78V13h.73v0h.13V6.8H9.63V6.49H8.9V7.3L2.71,10.4v.72l3,1.91-3,1.87v.72L6,17.26v2.31L12.55,23l6.92-3.43V17.06l2.92-1.47v-.72l-3-1.86,3-1.89V10.4l-6.2-3.1Zm4.9,7.13-2.63,1.64-2.27-1.09v-3Zm-2.72,7.88-5.46,2.71V17.08l2.88,1.84,2.58-1.31Zm-5.24-2.58,5.47-2.69,2.49,1.57-5.48,2.69ZM8.87,8.38v2.95L6.55,12.5,3.94,10.85ZM7,17.77,9.3,18.92l2.87-1.83v4.4L7,18.76Zm-.56-4.29,5.44,2.72L9.38,17.78,3.94,15.06Z"/><path class="cls-1" d="M8.44,3.57a1.92,1.92,0,0,0,.19.48l.58-.33a.88.88,0,0,1-.14-.48,1,1,0,0,1,2-.25V14h.73v-.11h0V3.24s0-.07,0-.1V2.72A1.76,1.76,0,0,0,10,1,1.76,1.76,0,0,0,8.17,2.72a1.76,1.76,0,0,0,.26.85Z"/><polygon class="cls-1" points="13.28 13.7 14.01 13.7 14.01 13.01 13.89 13.01 13.89 12.96 13.21 12.96 13.21 13.6 13.28 13.6 13.28 13.7"/><polygon class="cls-1" points="3.33 3.14 4.01 3.79 4.49 3.33 4 2.86 4.05 2.81 3.33 2.13 2.82 2.62 3.35 3.12 3.33 3.14"/><polygon class="cls-1" points="5.05 3.33 5.53 3.79 6.21 3.14 5.77 2.72 5.88 2.62 5.36 2.13 4.64 2.81 5.12 3.26 5.05 3.33"/><polygon class="cls-1" points="2.88 8.74 2.88 8.1 3.57 8.1 3.57 7.45 3.07 7.45 3.07 7.18 2.88 7.18 2.88 6.8 2.34 6.8 2.34 6.49 1.61 6.49 1.61 7.18 0.88 7.18 0.88 7.86 1.5 7.86 1.5 8.1 1.61 8.1 1.61 8.55 2.19 8.55 2.19 8.74 2.88 8.74"/><polygon class="cls-1" points="5.05 4.76 5.73 5.41 6.21 4.95 5.82 4.58 5.88 4.53 5.15 3.85 4.64 4.33 5.07 4.74 5.05 4.76"/><polygon class="cls-1" points="20.43 7.12 20.43 8.1 21.12 8.1 21.12 7.86 21.66 7.86 21.66 6.83 20.93 6.83 20.93 7.12 20.43 7.12"/><polygon class="cls-1" points="13.89 3.06 14.01 3.06 14.01 2.37 13.28 2.37 13.28 2.91 13.21 2.91 13.21 3.56 13.89 3.56 13.89 3.06"/><polygon class="cls-1" points="13.89 4.43 14.01 4.43 14.01 3.75 13.28 3.75 13.28 4.21 13.21 4.21 13.21 4.86 13.89 4.86 13.89 4.43"/><polygon class="cls-1" points="9.76 6.15 9.76 5.5 9.63 5.5 9.63 5.12 8.9 5.12 8.9 5.8 9.07 5.8 9.07 6.15 9.76 6.15"/></svg>