<svg id="图层_1" data-name="图层 1" xmlns="http://www.w3.org/2000/svg" viewBox="0 0 24 24"><defs></defs><title>zifux</title><path class="cls-1" d="M2.6,11.3c0-.8.1-1.4.1-1.7a8.2,8.2,0,0,1,.1-1.4,6.1,6.1,0,0,1,2.9-.8A2.8,2.8,0,0,1,7,7.7a3.5,3.5,0,0,1,.9,1.1,4.9,4.9,0,0,1,.3,2c0,.5-.1,1.5-.1,3.1S8,17.6,8,20.2H5.6c.1-.9.1-2.8.2-5.6l-.3.4-.5.2-.5.4-.3.3-.2.4v.5a1.5,1.5,0,0,0,.1.7.5.5,0,0,0,.5.3h.3l.4-.2c-.1.6-.3,1.5-.4,2.7l-1,.2a1.6,1.6,0,0,1-1.2-.4A3.7,3.7,0,0,1,2,18.7a5.8,5.8,0,0,1-.3-1.9,4.5,4.5,0,0,1,.1-1.1l.3-1.1.5-.9.7-.7,1.3-.6.5-.3.4-.2.2-.2a.4.4,0,0,1,.1-.3V11a1.4,1.4,0,0,0-.2-.7L5,10.1A4.1,4.1,0,0,0,2.6,11.3Z"/><path class="cls-1" d="M9.2,20.2q.3-3.9.3-9c.1-3.4.2-6,.2-7.7h2.4c-.1,1.3-.2,2.7-.2,4.2l.8-.3h.6a2,2,0,0,1,1.5.6,4.6,4.6,0,0,1,1.1,2,15.9,15.9,0,0,1,.4,3.4,20,20,0,0,1-.4,3.7,8.3,8.3,0,0,1-1,2.6,2.2,2.2,0,0,1-1.5.8h-.6l-.6-.4-.4-.6a3.4,3.4,0,0,1-.3-.8v1.6H9.2Zm2.5-9.1v2.5a8.7,8.7,0,0,0,.1,1.8,2.9,2.9,0,0,0,.3,1.1.8.8,0,0,0,.7.4.7.7,0,0,0,.6-.4,8.3,8.3,0,0,0,.4-1.2,8.1,8.1,0,0,0,.1-1.6,6.2,6.2,0,0,0-.3-2.1,1,1,0,0,0-1-.7A1.8,1.8,0,0,0,11.7,11.1Z"/><path class="cls-1" d="M22.1,16.3c0,.3-.1.9-.1,1.8L21.8,20a4.1,4.1,0,0,1-1.8.5,2,2,0,0,1-1.1-.3,2.7,2.7,0,0,1-1-1.1,5.2,5.2,0,0,1-.7-2,12.8,12.8,0,0,1-.2-2.9,14.6,14.6,0,0,1,.2-3,10.5,10.5,0,0,1,.7-2.3A3.3,3.3,0,0,1,19,7.7a2.8,2.8,0,0,1,1.3-.3h.8a3,3,0,0,1,1.1.4v3.7a2.9,2.9,0,0,0-1.5-.6.9.9,0,0,0-.8.4,2.3,2.3,0,0,0-.5,1,7.9,7.9,0,0,0-.2,1.7,6.1,6.1,0,0,0,.2,1.5,1.9,1.9,0,0,0,.4,1,1.3,1.3,0,0,0,.8.3h.4l.5-.2Z"/></svg>