<svg id="图层_1" data-name="图层 1" xmlns="http://www.w3.org/2000/svg" viewBox="0 0 24 24"><defs><style>.cls-1,.cls-6{fill:#909399;}.cls-1,.cls-2,.cls-3,.cls-5{opacity:0.9;}.cls-2{fill:#8ec2e3;}.cls-3{fill:#099;}.cls-4{fill:#4352d4;opacity:0.7;isolation:isolate;}.cls-5{fill:#c90;}</style></defs><title>zuhetu</title><rect class="cls-1" x="13.5" y="10.3" width="2.9" height="8.31"/><rect class="cls-2" x="18.3" y="12.9" width="2.9" height="5.71"/><rect class="cls-3" x="8.9" y="8.2" width="2.9" height="10.39"/><rect class="cls-4" x="3.8" y="14.8" width="2.9" height="3.81"/><path class="cls-5" d="M5.2,8.5l.7-.2,4.4-3.2,2.9,2.6a1.7,1.7,0,0,0,2.2.1l5.1-3.9a.8.8,0,0,0,.4-.7,1,1,0,0,0-.2-.7.9.9,0,0,0-.7-.3,1.1,1.1,0,0,0-.8.2L14.4,6.1l-3-2.6a1.5,1.5,0,0,0-2.1-.1L4.6,6.8a.7.7,0,0,0-.4.6.8.8,0,0,0,.2.7A1.2,1.2,0,0,0,5.2,8.5Z"/><path class="cls-6" d="M22.5,20.2H2.6V2.9A1,1,0,0,0,1.5,2a1,1,0,0,0-1,.9V21.1a1,1,0,0,0,1,.9h21a.9.9,0,1,0,0-1.8Z"/></svg>