<svg xmlns="http://www.w3.org/2000/svg" viewBox="0 0 24 24"><defs></defs><title>zzgdgl</title><path class="a" d="M16.3,2.3l4.3,4.3H17a.7.7,0,0,1-.7-.7V2.3Zm0-1.3H3.4A1.3,1.3,0,0,0,2,2.3V21.7A1.3,1.3,0,0,0,3.4,23H20.6A1.3,1.3,0,0,0,22,21.7V6.6Zm4.3,20h0a.7.7,0,0,1-.7.7H4.1a.7.7,0,0,1-.7-.7V3a.7.7,0,0,1,.7-.7H15.2v4a1.4,1.4,0,0,0,1.4,1.3h4ZM14.2,7.6h0c0,.4-.2.7-.6.7h-4C9.2,8.3,9,8,9,7.6H9A.6.6,0,0,1,9.6,7h4A.6.6,0,0,1,14.2,7.6ZM7.6,7H6.5a.6.6,0,0,0-.6.6h0a.7.7,0,0,0,.6.7H7.6a.7.7,0,0,0,.6-.7h0A.6.6,0,0,0,7.6,7Zm8.1,3.5H10.5a.7.7,0,0,0-.7.7h0a.7.7,0,0,0,.7.6h5.2a.7.7,0,0,0,.7-.6h0A.7.7,0,0,0,15.7,10.5Zm-7.6,0H6.7a.8.8,0,0,0-.8.7h0c0,.3.4.6.8.6H8.1c.3,0,.7-.3.7-.6h0A.8.8,0,0,0,8.1,10.5Zm7.6,3.6H10.5a.7.7,0,0,0-.7.6h0a.7.7,0,0,0,.7.7h5.2a.7.7,0,0,0,.7-.7h0A.7.7,0,0,0,15.7,14.1Zm-7.6,0H6.7c-.4,0-.8.3-.8.6h0a.8.8,0,0,0,.8.7H8.1a.8.8,0,0,0,.7-.7h0C8.8,14.4,8.4,14.1,8.1,14.1Zm7.6,3.5H10.5a.7.7,0,0,0-.7.7h0c0,.4.3.6.7.6h5.2c.4,0,.7-.2.7-.6h0A.7.7,0,0,0,15.7,17.6Zm-7.6,0H6.7a.8.8,0,0,0-.8.7h0c0,.4.4.6.8.6H8.1a.7.7,0,0,0,.7-.6h0A.8.8,0,0,0,8.1,17.6Z"/></svg>