<svg xmlns="http://www.w3.org/2000/svg" viewBox="0 0 24 24"><defs></defs><title>zzjggl</title><path class="a" d="M22.1,17.5a.8.8,0,0,1-.8-.7V12a.7.7,0,0,0-.7-.7H13.4a.7.7,0,0,1-.7-.7V8.3a.7.7,0,0,1,.7-.7h1.3a.8.8,0,0,0,.8-.7V1.7a.8.8,0,0,0-.8-.7H9.3a.8.8,0,0,0-.8.7V6.9a.8.8,0,0,0,.8.7h1.3a.7.7,0,0,1,.7.7v2.3a.7.7,0,0,1-.7.7H3.4a.7.7,0,0,0-.7.7v4.8a.8.8,0,0,1-.7.7H1.2a.7.7,0,0,0-.7.7v4.1a.7.7,0,0,0,.7.7H5.5a.8.8,0,0,0,.8-.7V18.2a.8.8,0,0,0-.8-.7H4.8a.7.7,0,0,1-.7-.7V13.4a.7.7,0,0,1,.7-.7h5.8a.7.7,0,0,1,.7.7v3.4a.7.7,0,0,1-.7.7H9.8a.7.7,0,0,0-.7.7v4.1a.7.7,0,0,0,.7.7h4.3a.8.8,0,0,0,.8-.7V18.2a.8.8,0,0,0-.8-.7h-.7a.7.7,0,0,1-.7-.7V13.4a.7.7,0,0,1,.7-.7h5.8a.7.7,0,0,1,.7.7v3.4a.7.7,0,0,1-.7.7h-.7a.7.7,0,0,0-.7.7v4.1a.7.7,0,0,0,.7.7h4.3a.7.7,0,0,0,.7-.7V18.2a.7.7,0,0,0-.7-.7Z"/></svg>