<svg xmlns="http://www.w3.org/2000/svg" viewBox="0 0 24 24"><defs></defs><title>zzscgl</title><path class="a" d="M22.5,4,20.2,2.3a.7.7,0,0,0-1,.2.5.5,0,0,0-.1.6.5.5,0,0,0-.4.2h0L14.4,9.4a2,2,0,0,1-.1,1.3l.6.5-.2.4-.5-.5c-1.9-1.9-3.5-3.4-3.6-3.6S10.2,4,12,3.3L13.4,3h.5c.5,0,.5-.6,0-.7h-.6c-2.5-.2-5.1.7-7.6,3.1l-.5.6A3.1,3.1,0,0,1,3,8.3a.8.8,0,0,0-1,.1v.2l-.5.5a.6.6,0,0,0,0,.9L4,12.6a.6.6,0,0,0,.9,0l.5-.5h.2a.6.6,0,0,0,.1-.9h.1v-.2h0v-.2l.4-.2a2.5,2.5,0,0,1,2.6.6l3.6,3.6L10,18.2H9.9l-1.1,1-1,1.9,1,.7,1.5-1.5.6-1.4h0l2.5-3.6,6,6L22,18.9l-5.6-5.6-.9-.9.4-.5.6.4a1.9,1.9,0,0,1,1.3-.5l4.2-6h0a.7.7,0,0,0,.1-.5l.6-.2A.8.8,0,0,0,22.5,4ZM16.1,9.3l-.3-.2,3.1-4.5.4.3Zm1.5,1.1-.4-.3,3.2-4.5.4.3Z"/></svg>